<svg xmlns="http://www.w3.org/2000/svg" xmlns:xlink="http://www.w3.org/1999/xlink" width="186" height="65" viewBox="0 0 186 65">
    <defs>
        <path id="a" d="M.043.014h34.912v49.418H.043z"/>
        <path id="c" d="M.03.032H34.97V34.96H.03z"/>
    </defs>
    <g fill="none" fill-rule="evenodd">
        <g transform="translate(31 15)">
            <mask id="b" fill="#fff">
                <use xlink:href="#a"/>
            </mask>
            <path fill="#064D80" d="M16.638 34.384c1.308.027 2.611.018 3.906-.244 2.044-.413 3.959-1.146 5.716-2.299 6.733-4.417 9.048-13.314 6.1-20.427C29.86 5.388 25.27 2.13 18.951 1.371c-1.47-.176-2.931-.078-4.376.181-3.35.602-6.246 2.134-8.62 4.64C3.38 8.91 1.914 12.174 1.508 15.94c-.01.013-.03.026-.03.038.001.031.011.062.017.093a13.913 13.913 0 0 0 .002 3.516c-.009.013-.027.03-.024.04.007.03.023.058.036.087.441 4.053 2.049 7.527 4.955 10.328 2.506 2.415 5.497 3.8 8.911 4.227l.12.011 1.028.1.115.005M17 .016c4.224-.055 8.035 1.17 11.35 3.891 2.15 1.766 3.743 3.98 4.89 6.538.07.156.16.303.24.454l.036.094.04-.108.015-9.418V.804h1.283l.087.587c.004.157.013.313.013.47v30.524c0 .156-.008.312-.013.469l-.016.707c-.072 3.355-.857 6.496-2.69 9.314-1.704 2.618-4.02 4.425-6.95 5.356-1.198.382-2.428.68-3.662.917-1.747.337-3.517.341-5.29.183-2.731-.244-5.304-1.05-7.747-2.292-2.224-1.13-3.984-2.801-5.266-4.988-.136-.232-.252-.476-.397-.753.187-.118.34-.222.5-.315.164-.095.334-.18.521-.28.067.096.128.168.173.248 1.71 3.05 4.285 4.988 7.503 6.068 1.01.34 2.045.602 3.08.847.477.113.983.099 1.476.142l.243.028 1.247.107.124.003 1.366.01.351-.013 1.094-.07.281-.047.631-.079.172-.039c1.509-.27 2.973-.696 4.364-1.36 3.154-1.504 5.29-3.967 6.49-7.298.62-1.719.992-3.501 1.018-5.328.042-2.933-.004-5.867-.013-8.8l.019-.344-.085-.018-.129.337c-.572 1.036-1.076 2.12-1.729 3.1-2.57 3.856-6.189 6.107-10.59 7.131-1.515.353-3.049.452-4.59.341C8.362 35.086 1.78 29.363.345 21.335c-.116-.65-.22-1.296-.228-1.957.008-.016.026-.035.023-.049-.007-.033-.023-.065-.036-.098-.02-.623-.077-1.248-.057-1.87.157-4.903 1.869-9.123 5.366-12.51C8.128 2.22 11.389.724 15.079.191c.132-.019.264-.043.395-.065l.252-.024 1.119-.07L17 .016" mask="url(#b)"/>
        </g>
        <g transform="translate(151 15)">
            <mask id="d" fill="#fff">
                <use xlink:href="#c"/>
            </mask>
            <path fill="#054D7F" d="M33.543 19.197l.018-.154c.015-.727.057-1.456.038-2.182-.079-2.914-.865-5.624-2.404-8.102-1.728-2.781-4.103-4.825-7.096-6.134-3.058-1.339-6.25-1.693-9.523-1.1-4.018.728-7.323 2.702-9.842 5.932-1.918 2.46-3.01 5.263-3.278 8.38-.011.012-.032.026-.031.038.003.031.015.062.023.094l-.009 2.728c-.01.015-.03.033-.027.045.008.034.025.066.038.099.076.587.115 1.183.234 1.761 1.2 5.823 4.516 9.891 10.066 12.073 1.153.453 2.355.755 3.597.868l.232.023c1.603.19 3.204.167 4.79-.13 5.632-1.053 9.634-4.188 11.968-9.443.68-1.53.968-3.156 1.206-4.796m.121 14.793l-.005-9.39-.03-.09-.02.084c-.099.156-.211.306-.296.47-1.622 3.152-3.85 5.741-6.954 7.515-2.05 1.172-4.258 1.875-6.586 2.22-1.48.219-2.965.206-4.445.022-5.887-.729-11.928-4.574-14.31-11.37-.928-2.647-1.176-5.37-.855-8.15C1.082 7.335 6.935 1.992 13.368.5c7.704-1.788 16.272 1.576 20.007 9.43.063.132.16.25.24.374l.013.086.031-.09.013-8.884V.78h1.183l.097.12c.006.191.018.382.018.573l.001 31.99v.72c-.458.03-.879.138-1.296-.053l-.01-.14" mask="url(#d)"/>
        </g>
        <path fill="#054D7F" d="M102.582 31.067c-.017-.172-.03-.344-.05-.515-.437-3.88-2.014-7.21-4.84-9.906-2.821-2.693-6.222-4.093-10.094-4.371l-.247-.017c-1.244-.107-2.483.004-3.698.23-4.84.902-8.59 3.441-11.096 7.705-2.122 3.608-2.695 7.523-1.844 11.602 1.178 5.648 4.445 9.616 9.788 11.826 1.332.55 2.74.831 4.153 1.047.767.117 1.566.049 2.35.032 2.831-.058 5.508-.749 7.907-2.257 5.603-3.52 7.982-8.716 7.684-15.247l-.013-.13zm-.061 8.641c-1.088 2.228-2.487 4.227-4.35 5.872-2.753 2.428-5.976 3.814-9.598 4.286-5.898.769-12.11-1.832-15.693-6.267-2.022-2.504-3.243-5.356-3.683-8.544-.06-.436-.09-.877-.133-1.316.009-.016.028-.035.025-.05-.007-.035-.024-.069-.036-.103L69 32.581c.01-.014.032-.03.03-.041-.005-.033-.02-.064-.031-.096.045-2.48.456-4.893 1.508-7.15 2.572-5.516 6.865-8.932 12.83-9.985 5.81-1.026 10.996.507 15.375 4.54 1.64 1.51 2.866 3.334 3.807 5.353l.15.261.082-.046a399.8 399.8 0 0 1-.059-.251v-9.412h1.209l.084.467c.005.211.013.422.013.633L104 48.51v.714h-1.306v-9.48l-.027-.216-.146.18zM116.475 31.545l-.065.993h30.364l-.052-1.097-.018-.15c-.215-1.056-.359-2.133-.659-3.166-.779-2.68-2.16-5.033-4.205-6.969-2.993-2.83-6.603-4.05-10.71-3.923l-.362.02c-.722.09-1.452.144-2.166.277-7.008 1.304-11.583 7.137-12.106 13.775l-.021.24m13.758 17.17l2.25.077c.036 0 .071-.002.106-.003l1.228-.084.252-.023c3.432-.387 6.51-1.564 8.982-4.026.58-.577 1.035-1.275 1.54-1.923.148-.189.269-.397.423-.626l1.082.616c-.095.178-.164.325-.248.464-1.318 2.177-3.214 3.735-5.454 4.904-2.183 1.14-4.526 1.72-6.99 1.84l-.14.01c-.508.02-1.017.067-1.525.058-5.09-.092-9.391-1.927-12.755-5.747-1.824-2.071-2.88-4.531-3.494-7.186-.18-.778-.383-1.563-.438-2.354a21.066 21.066 0 0 1 .012-3.13 18.06 18.06 0 0 1 2.663-8.117c2.27-3.686 5.603-5.915 9.808-6.93a19.78 19.78 0 0 1 3.802-.534L132.6 16c6.71.267 12.469 4.798 14.5 11.229.433 1.373.728 2.77.894 4.198l.006.111v2.274h-30.856c-.207 0-.414.01-.621.014l-.093.078a14.917 14.917 0 0 0 1.34 5.906c2.383 5.22 6.522 8.092 12.21 8.875l.253.03"/>
        <path fill="#004A7E" d="M110.114 1l.778.002a.131.131 0 0 0 .012.09l.08.094c.005.21.015.421.015.631v47.404c0 .23-.013.458-.02.688l-.07.088-.81.003-.078-.092c-.007-.21-.02-.42-.02-.63V1.818c0-.211.01-.421.015-.632l.087-.1a.124.124 0 0 0 .011-.086"/>
        <path fill="#084F80" d="M17.68 16.002c.341 0 .627-.006.912.002.11.003.219.036.408.07L1.276 49 0 48.846l17.68-32.844"/>
        <path fill="#074F80" d="M9 48.827L26.657 16H28c-.119.234-.195.393-.278.548l-12.13 22.55-4.947 9.2c-.417.775-.479.803-1.33.584-.074-.018-.15-.026-.315-.055"/>
        <path fill="#6590A8" d="M133 15l-1 .008 1-.008"/>
        <path fill="#417592" d="M65 49l.142-1L65 49z"/>
        <path fill="#BBD4DE" d="M64 40.932l.303-.932.197.048-.044.952-.456-.068z"/>
        <path fill="#417592" d="M65.34 17L65 16c.857.283.355.658.34 1"/>
        <path fill="#7FA7BF" d="M102.373 25l.127.845-.178.155-.322-.878.373-.122"/>
        <path fill="#407491" d="M103.5 17l-.5-1 .5 1"/>
        <path fill="#4A7C9A" d="M51 62"/>
        <path fill="#7FA7BF" d="M102 40.418l.424-.418.076.5-.5-.082M46.5 15l-.5.203.5-.203"/>
        <path fill="#4A7C9A" d="M52 62c-.333.136-.667.272-1 .406L52 62"/>
        <path fill="#9BB9CA" d="M47.5 62.234L47 62c.167.078.333.157.5.234"/>
        <path fill="#7FA7BF" d="M134.5 49l-.5.21.5-.21M130.5 49.271L130 49l.5.271"/>
        <path fill="#A8C5D3" d="M148.054 32.5L148 32c.124.117.273.23.353.354.02.03-.193.096-.299.146"/>
        <path fill="#7FA7BF" d="M69 32c.097.116.228.23.272.35.017.042-.171.1-.266.15L69 32"/>
        <path fill="#98BED5" d="M116 33.5l.5-.5-.5.5"/>
        <path fill="#7FA7BF" d="M69 34c.111.112.257.22.315.336.025.048-.138.109-.215.164L69 34"/>
        <path fill="#5589A8" d="M31.216 34c.099.111.227.22.282.335.022.047-.117.11-.182.165-.11-.113-.25-.222-.314-.34-.023-.043.137-.106.214-.16"/>
        <path fill="#1C5B82" d="M110.417.5L110 .06c.143-.036.287-.056.433-.06.094.17.09.337-.016.5"/>
        <path fill="#236188" d="M185.5 16.5l-.5-.5.5.5z"/>
        <path fill="#98BFD5" d="M184 40.405l.17-.405.26.438-.234.062-.196-.095z"/>
        <path fill="#1C5B82" d="M109.5.048l-.489.452L109 .002c.169-.008.336.008.5.046"/>
        <path fill="#6590A8" d="M110.5.428a1.61 1.61 0 0 0-.425.072.797.797 0 0 1-.06-.5l.485.428M109.43.5a1.048 1.048 0 0 0-.43-.061l.486-.439c.03.18.011.347-.057.5"/>
        <path fill="#7FA7BF" d="M133.5 49c-.167.011-.333.023-.5.033.167-.01.333-.022.5-.033"/>
        <path fill="#B3D0D9" d="M64.5 26.043l-.265.457-.235-.398c.141-.112.308-.132.5-.059"/>
        <path fill="#98BFD5" d="M184 49l.094.5L184 49"/>
        <path fill="#1C5B82" d="M109 50l.5.5-.5-.5M110 49.5l.5-.5-.5.5"/>
        <path fill="#6590A8" d="M133 51.085l.5-.085-.5.085"/>
        <path fill="#4A7C9A" d="M51.5 62l-.5.331.5-.331"/>
        <path fill="#98BFD5" d="M184.388 25l-.275.5-.113-.48.388-.02"/>
        <path fill="#7FA7BF" d="M47.5 15l-.5.146.5-.146"/>
        <path fill="#4A7C9A" d="M49.5 62.028L49 62l.5.028"/>
        <path fill="#9FBDCE" d="M32.21 34c.097.111.223.22.278.335.022.047-.112.11-.175.165-.109-.112-.248-.221-.31-.339-.024-.043.132-.107.207-.161"/>
        <path fill="#9BB9CA" d="M46 49c.167.032.333.065.5.096-.167-.031-.333-.064-.5-.096M47 49l.5.043L47 49"/>
        <path fill="#9FBDCE" d="M32.258 31l-.11.5c-.054-.118-.14-.235-.148-.354-.003-.048.167-.097.258-.146M152.239 34l.095.5c-.116-.113-.266-.224-.332-.342-.024-.044.152-.105.237-.158"/>
        <path fill="#7FA7BF" d="M183 34.5l.157-.5-.157.5"/>
        <path fill="#9FBDCE" d="M152.27 31l-.069.5c-.072-.118-.177-.235-.2-.355-.01-.045.174-.096.27-.145"/>
        <path fill="#A8C5D3" d="M88.5 16.148L88 16l.5.148"/>
        <path fill="#B3D0D9" d="M102.117 31.5L102 31c.038.167.078.333.117.5"/>
        <path fill="#9BB9CA" d="M131 16l-1 .182 1-.182M116.193 31l-.193.5.193-.5"/>
        <path fill="#7FA7BF" d="M147.16 31.5L147 31l.16.5z"/>
    </g>
</svg>
