<svg xmlns="http://www.w3.org/2000/svg" xmlns:xlink="http://www.w3.org/1999/xlink" width="766" height="328" viewBox="0 0 766 328">
    <defs>
        <path id="a" d="M.142.435h11.481v17.147H.142z"/>
        <path id="c" d="M0 .144h34.785v1.548H0z"/>
    </defs>
    <g fill="none" fill-rule="evenodd">
        <path fill="#4A69FF" d="M167.293 284.71a204.34 204.34 0 0 0-.616 39.577c.078.947 1.78.954 1.703 0a204.34 204.34 0 0 1 .615-39.577c.107-.95-1.596-.943-1.702 0M167 206.722c.84 24.177.847 48.378.021 72.555-.033.965 1.332.963 1.365 0 .825-24.177.819-48.378-.02-72.555-.034-.96-1.399-.965-1.365 0"/>
        <path fill="#4A69FF" d="M168.727 207l45.546-1.572c.967-.033.972-1.46 0-1.427l-45.546 1.57c-.967.034-.972 1.462 0 1.428"/>
        <path fill="#4A69FF" d="M214 205.723l1.687 64.554c.025.962 1.338.966 1.313 0l-1.687-64.554c-.025-.962-1.338-.966-1.313 0M172.813 212.08a214.412 214.412 0 0 0-.798 21.16.753.753 0 0 0 .736.745l8.768.015c.333 0 .613-.233.71-.547.795-2.56.778-5.169.769-7.83-.01-3.395-.024-6.79-.036-10.184-.006-1.651.184-3.244-1.632-3.737-2.543-.69-5.66-.485-8.29-.7-.944-.076-.94 1.415 0 1.491 1.987.162 4.147.096 6.1.496.908-.06 1.69.27 2.344.994l.007 1.94.012 3.395c.016 4.428.633 9.465-.694 13.739l.71-.547-8.768-.016.736.745c-.082-7.066.184-14.12.798-21.16.084-.954-1.39-.948-1.472 0M187 212.837l.407 17.798c.028 1.172-.403 3.355.89 4.095.795.455 2.155.2 2.998.192l4.854-.048c.417-.004.77-.335.77-.738l.024-19.544c.001-1.238.405-2.783-.953-3.408-.783-.36-2.047-.082-2.902-.08l-4.957.015c-.992.003-.993 1.48 0 1.478l3.605-.012c.462-.001 3.368-.304 3.605-.01.357.442.06 2.406.06 2.995l-.004 3.42-.018 15.146.77-.739-3.883.038c-.786.007-2.675.247-3.263-.395-.385-.42-.063-2.756-.077-3.367l-.077-3.367-.308-13.469c-.022-.949-1.563-.952-1.54 0M201 213.104c.09 6.246.207 12.507.575 18.744.074 1.254.018 2.586 1.483 3.011 1.012.294 2.472.038 3.507.03l4.65-.037c.418-.004.793-.342.785-.752l-.45-22.314a.781.781 0 0 0-.784-.75l-8.605-.036c-1.01-.004-1.01 1.499 0 1.503l8.605.035-.784-.752.45 22.314.784-.75c-2.05.015-4.497.402-6.512.05-1.787-.31-1.529-.821-1.607-2.539a565.341 565.341 0 0 1-.528-17.757c-.014-.966-1.583-.969-1.569 0M177.328 241.168c-1.089-.01-3.107-.542-4.036.343-.975.929-.696 3.635-.781 4.795a199.164 199.164 0 0 0-.486 17.55.78.78 0 0 0 .51.733l.906.361c.843.336 1.206-1.133.37-1.467l-.905-.361.51.734c-.063-4.183-.012-8.365.185-12.543.095-2.004.22-4.007.377-6.008.078-1-.044-2.285.83-2.639.633-.255 1.84.018 2.52.024.896.008.897-1.514 0-1.522M181.2 242.622c-.01.008.22 2.479.22 2.522a195.422 195.422 0 0 1 .205 8.058c.018 3.637-.074 7.271-.25 10.903l.505-.72-1.005.082c-.882-.082-.877 1.414 0 1.495.712.067.68.06 1.37-.136.305-.086.49-.394.506-.72.275-5.686.331-11.379.124-17.067-.041-1.143.097-8.031-2.648-5.474-.674.627.303 1.68.973 1.057M185.123 241.501c-.28 7.24-.083 14.47.59 21.686.038.407.317.747.759.752 2.124.02 4.251.072 6.376.059 1.07-.008 2.153.105 2.791-.912.6-.955.275-2.476.256-3.525a30653.35 30653.35 0 0 1-.24-13.153c-.02-1.14.401-3.179-.205-4.201-.636-1.07-1.808-.978-2.992-1.168l-6.416-1.028c-.955-.153-1.366 1.296-.402 1.45l4.123.661c.678.109 3.613.151 4.124.661.608.608.244 3.275.26 4.112l.08 4.384.16 8.77c.02 1.139.218 1.234-.757 1.952-.867.641-1.597.485-2.604.476l-4.554-.042.758.752a164.876 164.876 0 0 1-.589-21.686c.037-.968-1.48-.966-1.518 0M201.122 241.238c-.164 7.868-.29 15.74.51 23.58.045.45.312.703.756.76 3.285.422 6.55.527 9.855.317.398-.026.77-.328.757-.76l-.644-21.002c-.045-1.47.334-2.999-1.284-3.469-1.278-.37-2.953-.22-4.28-.313l-4.984-.349c-.972-.068-.968 1.452 0 1.52 2.416.17 4.832.347 7.25.508.28.019 1.53-.079 1.723.103.2.189.052 1.695.062 2l.137 4.5c.17 5.5.338 11.001.506 16.502l.757-.76c-3.305.21-6.57.106-9.855-.316l.757.76c-.8-7.842-.674-15.713-.51-23.58.021-.98-1.492-.979-1.513 0M176.167 268l-2.84.051c-.48.008-.844.403-.862.894L172 281.137c-.044 1.151 1.681 1.15 1.725 0l.463-12.192-.862.894 2.84-.05c1.109-.02 1.112-1.808 0-1.789"/>
        <path fill="#4A69FF" d="M173.024 282.567l.11-.098c.31-.276.27-.736 0-1.017l-.14-.145c-.283-.295-.788-.255-1.078 0-.765.671-.523 1.947-.576 2.839l-.339 5.71c-.023.402.37.7.763.719l9.056.424c.424.02.746-.346.763-.719l.416-9.586c.04-.926-1.485-.925-1.525 0-.14 3.195-.278 6.39-.417 9.586l.763-.72c-3.019-.14-6.037-.282-9.056-.423l.763.719.226-3.807c.041-.698-.246-3.297.241-3.725h-1.078l.14.145v-1.017l-.111.098c-.717.635.364 1.65 1.079 1.017M181.808 274.325l.192-5.611c.014-.414-.439-.847-.833-.675l-.73.318c-.773.338-.435 1.692.35 1.35l.73-.319-.833-.674-.192 5.611c-.03.9 1.285.9 1.316 0M187.522 274.71l-.007-1.968c0-.277-.22-1.741-.005-1.968.524-.552 2.832-.129 3.54-.087.603.035 1.235.031 1.829.137 1.158.206 1.268.325 1.348 1.372l.313 4.11c.07.921 1.528.93 1.457 0-.087-1.159-.176-2.318-.265-3.477-.054-.718.023-1.644-.268-2.322-.603-1.402-2.85-1.165-4.108-1.246-1.214-.078-3.918-.693-4.904.293-.337.338-.358.784-.4 1.22-.122 1.283.008 2.648.012 3.936.003.93 1.46.931 1.458 0M187 278.746c.034 3.982.052 7.964.052 11.946 0 .444.339.738.736.773 2.25.199 4.754.687 7.006.488.788-.07 1.35-.155 1.763-.972.586-1.16.432-3.21.405-4.463-.046-2.123-.39-4.196-.93-6.238-.253-.957-1.675-.55-1.42.41.646 2.445 1.433 5.889.79 8.45-.444 1.768-1.836 1.21-3.237 1.12a177.82 177.82 0 0 1-4.377-.34l.737.772c0-3.982-.018-7.964-.052-11.946-.009-.993-1.482-.996-1.473 0M201.512 275.443a27.91 27.91 0 0 0 .495-5.663l-.776.773 9.231-.008-.748-.567.74 2.052c.335.929 1.835.528 1.497-.411l-.741-2.051c-.117-.324-.388-.568-.748-.568l-9.23.008c-.415 0-.783.353-.776.772a25.829 25.829 0 0 1-.44 5.252c-.184.972 1.312 1.388 1.496.41M201 281.704v2.592c0 .938 1 .94 1 0v-2.592c0-.938-1-.94-1 0M174.348 298.503l7.879.943-.773-.749-1.196 19.555.772-.749c-2.42 0-4.839-.002-7.257-.003l.772.749.672-20.266c.032-.963-1.512-.962-1.544 0L173 318.249c-.013.404.365.748.773.748l7.257.003c.435 0 .747-.344.772-.748l1.197-19.555c.026-.439-.38-.702-.772-.748l-7.879-.942c-.984-.118-.975 1.38 0 1.496M187.529 318.463a151.54 151.54 0 0 0 2.332-19.72l-.769.743 4.438.242c1.327.073 2.271-.254 2.686.911.384 1.076.005 3.039.006 4.212l.007 4.212c.002 2.247 1.046 7.136-1.618 8.18-.83.325-2.476-.017-3.375-.03l-4.493-.062c-.99-.014-.99 1.47 0 1.485 2.097.029 4.193.068 6.29.087 1.268.012 2.762.163 3.782-.734 1.887-1.657.955-5.892.953-7.99l-.009-6.084c-.002-1.253.486-3.417-.147-4.57-.401-.735-.796-.82-1.616-.967-2.208-.397-4.665-.255-6.904-.377-.43-.023-.749.36-.769.743a148.424 148.424 0 0 1-2.277 19.324c-.173.935 1.308 1.336 1.483.395M201 309.297c.01 3.281.018 6.564.027 9.845a.76.76 0 0 0 .757.741c2.397.019 4.867.211 7.259.058 1.093-.07 2.013-.196 2.553-1.234.736-1.414.241-3.776.244-5.292l.02-7.7c.001-.953-1.512-.954-1.514 0l-.025 10.106c-.003 1.16.28 2.026-1.278 2.64-.573.224-1.665-.015-2.269-.02-1.663-.012-3.327-.026-4.99-.04l.757.741c-.01-3.281-.018-6.564-.027-9.845-.003-.953-1.517-.955-1.514 0M149.724 325.55l114.325.176c38.276.058 76.55.116 114.825.176l64.402.098c.965.002.966-1.549 0-1.55l-114.325-.176-114.825-.176-64.402-.098c-.965-.002-.966 1.549 0 1.55M176.554 204.297c-.04-4.206.107-8.404.443-12.599.076-.933-1.473-.929-1.547 0a140.866 140.866 0 0 0-.444 12.6c.01.935 1.557.937 1.548 0"/>
        <path fill="#4A69FF" d="M176.728 191.55l21.567.548 4.902.124c1.31.033 5.348-.49 6.17.714.484.71-.275 4.205-.335 5.127l-.402 6.151 1.286-.547-.534-.625c-.641-.75-1.704.349-1.066 1.096l.535.624c.462.541 1.246.073 1.286-.548l.47-7.177c.091-1.408.676-3.634.223-4.945-.34-.984-.788-1.128-1.751-1.27-2.058-.301-4.298-.109-6.373-.161l-25.978-.66c-.97-.025-.97 1.524 0 1.548"/>
        <path fill="#4A69FF" d="M184.697 189.399l-.005-7.436-.002-2.787c-.001-1.545-.63-2.87 1.297-3.299 2.061-.46 4.703-.131 6.838-.19l7.815-.22-.759-.733 1.6 16.563c.09.929 1.594.946 1.516 0l-.102-1.245c-.077-.936-1.594-.944-1.517 0l.102 1.245h1.517l-1.6-16.563c-.036-.386-.316-.746-.757-.734l-9.769.273-4.395.123c-.722.02-2.004-.115-2.659.365-1.32.969-.644 4.054-.643 5.344l.007 9.294c0 .944 1.517.946 1.516 0"/>
        <path fill="#4A69FF" d="M189.484 172.645l.189-16.203-.742.734c1.18-.153 4.576-1.192 5.492-.12.312.364.37 2.634.433 3.202.103.931.193 1.864.272 2.798.318 3.738.426 7.485.378 11.235-.013.945 1.471.946 1.484 0 .068-5.314-.201-10.62-.87-15.895-.135-1.063-.17-2.517-1.267-3.103-1.452-.777-4.391.217-5.922.415-.402.051-.737.293-.742.734L188 172.645c-.01.945 1.473.945 1.484 0M228.065 313.704a91.198 91.198 0 0 0 .3 11.593c.082.924 1.581.95 1.609 0l.026-.9c.027-.939-1.582-.938-1.61 0l-.026.9h1.61a91.2 91.2 0 0 1-.3-11.593c.035-.94-1.574-.938-1.609 0M227.27 163.72a1041.885 1041.885 0 0 1-.269 108.561c-.052.96 1.394.957 1.446 0a1041.885 1041.885 0 0 0 .27-108.561c-.048-.957-1.495-.963-1.447 0"/>
        <path fill="#4A69FF" d="M228.133 163.22a366.012 366.012 0 0 0 27.647-17.805l-1.145-.646a341.712 341.712 0 0 1 .341 42.51c-.053.962 1.47.96 1.522 0a341.712 341.712 0 0 0-.341-42.51c-.036-.511-.64-1.005-1.145-.647a365.964 365.964 0 0 1-27.647 17.806c-.842.49-.077 1.785.768 1.292"/>
        <path fill="#4A69FF" d="M255.228 187.285a80.371 80.371 0 0 1 12.365 15.36c.51.823 1.802.065 1.289-.763a81.98 81.98 0 0 0-12.6-15.668c-.693-.673-1.75.395-1.054 1.07"/>
        <path fill="#4A69FF" d="M269.732 202.996c3.171-.28 6.346-.45 9.53-.51.982-.019.986-1.504 0-1.486-3.184.06-6.359.23-9.53.511-.972.086-.98 1.572 0 1.485M233.129 167.942a115.326 115.326 0 0 0 17.63-11.674l-1.276-.537a406.71 406.71 0 0 1-.145 15.981 398.916 398.916 0 0 1-.535 11.975c-.044.73.182 3.516-.337 4.022h1.058a65.572 65.572 0 0 0-.197-.184v1.074l.127-.157c.606-.75-.446-1.831-1.057-1.075l-.128.158c-.248.307-.32.773 0 1.074l.197.185a.755.755 0 0 0 1.058 0c1.12-1.092.688-3.65.775-5.097.189-3.157.34-6.317.452-9.479.221-6.156.289-12.316.227-18.477-.007-.715-.788-.929-1.276-.537a113.278 113.278 0 0 1-17.328 11.435c-.852.457-.097 1.77.755 1.313"/>
        <path fill="#4A69FF" d="M232.005 167.71c.91 8.828 1.59 17.676 2.036 26.541.023.462.45.87.923.716 2.541-.822 5.053-1.721 7.527-2.734.882-.361 1.76-.734 2.633-1.12.358-.157 3.524-1.986 3.78-1.855l-.147-1.166-.113.1 1.145.151a6.988 6.988 0 0 0-.049-.08c-.497-.807-1.76-.063-1.259.75l.049.08c.26.423.787.471 1.145.15l.113-.101c.34-.304.258-.96-.147-1.166-1.45-.737-3.943 1.279-5.253 1.856-3.205 1.41-6.484 2.627-9.811 3.704l.923.715a507.194 507.194 0 0 0-2.037-26.542c-.096-.94-1.556-.95-1.458 0M236.11 201.191c3.904-2.702 8.174-5.845 12.592-7.603.864-.585 1.834-.753 2.909-.502a585.733 585.733 0 0 1 3.874 4.388c.856.979 1.71 1.961 2.561 2.946.374.433 2.456 2.282 2.433 2.804l.76-.776-.162-.008.76.775.003-.121c.024-.999-1.496-.998-1.52 0l-.003.121c-.01.434.357.756.76.776l.162.008c.423.02.742-.373.76-.775.032-.722-.534-1.17-.97-1.681a474.376 474.376 0 0 0-3.507-4.063 663.254 663.254 0 0 0-3.541-4.033c-.703-.794-1.542-2.153-2.66-2.398-1.949-.427-5.07 2.07-6.624 2.94a115.926 115.926 0 0 0-9.354 5.863c-.805.557-.045 1.902.767 1.34"/>
        <path fill="#4A69FF" d="M235.128 200.481c-1.146 3.754 5.728 2.68 7.73 2.666 5.826-.042 11.641.259 17.43.848.953.097.945-1.267 0-1.363-3.91-.399-7.832-.672-11.766-.786a156.851 156.851 0 0 0-5.663-.063c-.655.005-6.74.522-6.293-.94.258-.846-1.18-1.207-1.438-.362M234.53 208.912a446.162 446.162 0 0 1 42.108.29l-.725-.57.625 3.797.725-.981c-6.914-.642-13.833-1.284-20.773-1.521-3.38-.116-6.764-.136-10.145-.013-1.608.06-3.215.15-4.819.28-.964.079-1.925.173-2.887.275l-.961.11c-1.222.331-2.168-.241-2.838-1.718.723-.666-.343-1.758-1.063-1.095-1.589 1.462-.534 3.758 1.303 4.321 1.952.599 4.469-.184 6.446-.344 2.246-.18 4.498-.287 6.75-.335 9.685-.205 19.351.694 28.987 1.589.531.05.799-.531.725-.98l-.625-3.796c-.056-.344-.418-.552-.725-.569a446.162 446.162 0 0 0-42.109-.289c-.964.039-.97 1.588 0 1.55M234.726 216.438a687.582 687.582 0 0 0 41.19 1.116l-.755-.719a29.14 29.14 0 0 0 .371 4.357l.728-.91c-6.706.405-13.418.308-20.13.107-3.209-.097-6.419-.205-9.628-.308l-4.764-.155c-.792-.025-1.59-.024-2.381-.076-.805-.053-4.78-.233-3.06-2.432.58-.743-.73-1.46-1.303-.726-1.207 1.543-.239 3.449 1.491 4.155 1.458.595 3.23.451 4.777.502l7.144.23c9.282.299 18.574.7 27.854.14.532-.031.803-.43.728-.909a26.463 26.463 0 0 1-.318-3.975c-.004-.387-.344-.72-.755-.718-13.74.04-27.474-.332-41.189-1.115-.97-.056-.966 1.382 0 1.436M235.138 226.645c7.165.805 14.36.807 21.555.582 3.524-.11 7.046-.268 10.57-.39 1.696-.06 3.596-.36 5.282-.151 1.452.18 1.709.35 1.833 1.829.068.81-.2 1.789-.29 2.59l.745-.775-22.574-.066-10.796-.031c-1.821-.006-4.126.422-5.889-.017l-.981-.003c.028-.559.098-1.112.21-1.66.121-.828.275-1.653.412-2.479.16-.975-1.273-1.394-1.435-.412-.262 1.572-1.75 5.138.24 6.04 1.382.627 3.957.07 5.48.074l7.361.02 27.972.082c.436.001.697-.359.744-.774.242-2.157 1.368-5.441-1.475-5.96-1.976-.36-4.37.06-6.36.127-2.081.07-4.163.156-6.245.236-8.793.338-17.595.574-26.36-.41-.95-.107-.943 1.442 0 1.548M235.315 235.438c13.64.383 27.286.436 40.93.16l-.756-.718-.015 4.207.755-.72-23.68.014-11.84.007c-1.388 0-4.141.516-5.427.003-.97-.387-.56-.154-.468-1.094.048-.496.262-.861.242-1.387-.033-.922-1.544-.927-1.51 0 .057 1.543-1.698 3.344.8 3.896 1.92.424 4.383.02 6.362.02l7.4-.005 28.121-.015c.41 0 .754-.33.756-.72l.015-4.206c.002-.383-.348-.728-.755-.72-13.644.277-27.29.223-40.93-.16-.973-.027-.972 1.41 0 1.438M233.898 245.514l42.35.177-.751-.758-.383 4.021.75-.757-21.46.716-10.481.35c-1.664.055-3.327.113-4.992.167-1.997.063-5.849-.336-4.092-3.47.476-.851-.82-1.615-1.295-.766-1.036 1.848-.6 4.327 1.378 5.352 1.202.622 2.72.437 4.01.398 2.495-.077 4.99-.167 7.486-.25l29.446-.982c.435-.014.71-.338.75-.758l.383-4.02c.04-.41-.375-.756-.75-.758L233.898 244c-.966-.004-.967 1.51 0 1.514M234.804 254.486c6.199.493 12.411.766 18.63.779 2.944.005 5.889-.044 8.831-.15 1.928-.068 11.527-1.66 11.239 2.003l.742-.742a436.294 436.294 0 0 1-41.532 1.026l.197 1.457c1.707-.696 2.688-2.062 2.535-3.95-.076-.946-1.56-.954-1.483 0 .205 1.114-.277 1.954-1.446 2.52-.739.301-.697 1.436.197 1.456a436.29 436.29 0 0 0 41.532-1.025c.424-.03.708-.316.741-.742.178-2.26-1.557-3.568-3.65-3.827-3.84-.478-8.134.34-12.015.428a239.661 239.661 0 0 1-24.518-.716c-.952-.076-.947 1.407 0 1.483M235.603 264.041l37.663-1.59-.717-.918a68.02 68.02 0 0 0-.8 4.582l.718-.532c-12.895.608-25.798 1.194-38.711.878l.717.918 1.191-3.162c.331-.878-1.106-1.256-1.434-.386l-1.192 3.162c-.172.458.27.907.718.919 12.913.315 25.816-.27 38.71-.88.292-.013.674-.212.718-.532.214-1.538.48-3.06.8-4.581.092-.44-.206-.94-.718-.918l-37.663 1.59c-.954.04-.959 1.49 0 1.45M236.08 272.801l19.76.09 9.386.042 4.94.023c2.029.009 4.282-.665 4.324 2.201l.755-.789-21.765.54-10.881.27c-1.313.033-3.73.59-4.947.123-1.707-.653-.969-2.287-1.185-3.73-.15-1-1.606-.576-1.456.42.302 2.006-.638 4.378 1.96 4.868 1.886.356 4.22-.068 6.122-.115l6.43-.16 25.722-.638a.783.783 0 0 0 .755-.789c-.018-1.225-.255-2.251-.737-3.37-.106-.245-.407-.388-.652-.39l-38.53-.174c-.973-.004-.974 1.574 0 1.578M236.716 280.511l17.747.366a52109.357 52109.357 0 0 0 13.31.274c.835.017 3.627-.343 4.273.224l.694 1.992-.973.016c-.558.155-1.366.02-1.947.029a845.498 845.498 0 0 1-13.138.075 879.057 879.057 0 0 1-18.003-.224c-.955-.021-.955 1.49 0 1.512 7.46.167 14.92.245 22.383.22 3.89-.011 7.788-.005 11.678-.117 1.598-.046 2.612-.883 2.147-2.694-.481-1.872-2.303-2.335-3.976-2.473-3.641-.298-7.372-.159-11.026-.234l-23.17-.477c-.954-.02-.954 1.492 0 1.511"/>
        <path fill="#4A69FF" d="M235.448 280.574l-.432 2.434c-.075.417.113.847.556.967.384.105.905-.129.98-.55l.432-2.433c.074-.418-.113-.847-.556-.967-.385-.105-.905.128-.98.55M239.715 288.875c10.191.23 20.384.143 30.571-.262.95-.037.954-1.65 0-1.612-10.187.404-20.38.491-30.571.261-.953-.021-.953 1.592 0 1.613M279.565 202.72c-1.687 39.824-3.352 79.692-2.162 119.56.028.958 1.462.962 1.434 0-1.19-39.868.475-79.736 2.162-119.56.04-.961-1.393-.959-1.434 0"/>
        <path fill="#4A69FF" d="M238.727 294.999a1113.5 1113.5 0 0 1 33.531-1.279c.526-.012.812-.442.727-.9a23.386 23.386 0 0 1-.39-4.04c-.005-.405-.342-.682-.754-.71l-.951-.068c-.969-.067-.964 1.354 0 1.421l.951.067-.754-.71c.019 1.492.17 2.949.443 4.419l.728-.9c-11.184.258-22.362.684-33.531 1.279-.966.05-.972 1.472 0 1.42M236.378 299.535l35.534.008-.748-.768.336 2.887.748-.768c-12.69.772-25.404.761-38.093-.03l.748.768c-.036-.749-.142-1.348-.408-2.056-.342-.913-1.788-.517-1.442.408.246.516.365 1.065.354 1.648.021.433.327.74.748.767 12.69.791 25.403.801 38.093.03.367-.023.798-.336.748-.767l-.336-2.887c-.047-.412-.304-.767-.748-.767L236.378 298c-.962 0-.964 1.534 0 1.535M234.77 306.856c12.748-.61 25.503-1.054 38.262-1.333l-.756-.761c.02.903.112 1.872.06 2.774-.06 1.008.162.849-.647 1.211-1.262.566-4 .08-5.41.108l-10.328.204-21.15.418.757.761a12.14 12.14 0 0 1 .268-3.806c.22-.954-1.237-1.361-1.458-.405a13.332 13.332 0 0 0-.322 4.211c.032.404.32.771.756.762l25.575-.506c1.967-.039 3.935-.077 5.902-.117 1.843-.036 4.492.352 6.274-.147 2.16-.607 1.272-3.79 1.236-5.468-.009-.405-.34-.771-.757-.762-12.759.279-25.514.723-38.261 1.333-.97.047-.975 1.57 0 1.523M233.926 315.852c13.041.575 26.095.492 39.13-.25l-.747-.8c.01.31.263 2.782.084 2.998-.38.456-2.422.424-2.935.473a256.196 256.196 0 0 1-27.303 1.104c-1.9-.025-3.98.182-5.855-.144-1.296-.227-1.33-.137-1.642-1.606-.185-.87-.063-1.95-.091-2.835-.033-1.027-1.527-1.032-1.494 0 .046 1.418-.402 4.003.486 5.227.809 1.117 2.599.812 3.716.848a254.767 254.767 0 0 0 31.21-.903c1.265-.114 3.999.223 5.007-.83.894-.935.342-3.22.311-4.332-.011-.416-.333-.825-.747-.801-13.035.741-26.089.825-39.13.25-.962-.042-.96 1.559 0 1.6M297.993 213.722c1.04 36.208.041 72.45-2.99 108.56-.081.96 1.529.955 1.609 0a966.226 966.226 0 0 0 2.99-108.56c-.028-.96-1.637-.965-1.609 0"/>
        <path fill="#4A69FF" d="M294.724 213h74.552c.964 0 .966-1 0-1h-74.552c-.964 0-.966 1 0 1"/>
        <path fill="#4A69FF" d="M295.723 203.448c25.487.653 50.983.888 76.479.709l-.749-.724.05 8.867c.005.932 1.502.934 1.497 0l-.05-8.867a.747.747 0 0 0-.748-.725c-25.496.18-50.992-.056-76.48-.708-.963-.024-.962 1.424 0 1.448"/>
        <path fill="#4A69FF" d="M295.352 202.712c.267 2.904-.163 5.685-1.294 8.396-.371.889 1.145 1.275 1.512.395a18.182 18.182 0 0 0 1.35-8.791c-.087-.945-1.656-.954-1.568 0M368.385 214.725a1662.504 1662.504 0 0 0-.887 108.55c.024.965 1.638.969 1.615 0-.887-36.183-.59-72.384.886-108.55.04-.968-1.575-.966-1.614 0M303 218.734l.498 11.504c.017.398.34.78.775.761l7.428-.31c1.09-.045 2.606.185 3.436-.681 1.029-1.074.818-3.508.854-4.833.056-2.088-.15-4.149-.5-6.205-.058-.335-.432-.545-.748-.558l-9.158-.386c-.997-.042-.995 1.481 0 1.523l9.158.385-.748-.558c.28 1.635.45 3.278.456 4.937.003 1.07.232 4.096-.893 4.775-.844.51-3.176.133-4.178.175l-5.107.214.775.76-.497-11.503c-.042-.976-1.593-.981-1.55 0M317.002 219.07l.705 9.196c.03.384.332.75.777.734l11.024-.39c.32-.012.682-.217.748-.539.429-2.064.73-4.158.738-6.266.004-.881.097-1.84-.644-2.487-.995-.87-3.08-.762-4.373-.902-2.605-.283-5.219-.403-7.84-.416-.999-.005-1 1.462 0 1.467 3.033.016 6.628-.116 9.581.628 1.713.431 1.767.962 1.699 2.584-.07 1.685-.315 3.35-.658 5.002l.749-.538c-3.675.13-7.35.259-11.024.39l.776.733-.705-9.196c-.072-.936-1.625-.944-1.553 0M336.077 218.83l-.012 6.387c-.002.949-.337 2.604.532 3.377.823.732 2.34.27 3.267.175l6.308-.64c.413-.042.707-.298.733-.723.19-3.176.095-6.321-.29-9.48-.049-.399-.297-.711-.733-.724a30.57 30.57 0 0 1-7.528-1.17c-.907-.259-1.295 1.137-.39 1.395a32.113 32.113 0 0 0 7.918 1.222l-.733-.723c.386 3.159.482 6.304.29 9.48l.733-.723-4.055.411c-.873.089-3.672.75-4.323.18-.686-.601-.262-3.008-.26-3.881l.008-4.563c.002-.931-1.463-.933-1.465 0M353 219.344l.059 8.897a.77.77 0 0 0 .758.759c3.007.004 6.003-.14 8.997-.434.297-.03.684-.212.731-.557.42-3.08.559-6.145.376-9.25-.023-.393-.328-.779-.758-.758l-8.36.408c-.971.048-.978 1.566 0 1.518l8.36-.408-.758-.76a45.44 45.44 0 0 1-.322 8.846c.243-.185.488-.371.73-.557-2.993.294-5.989.438-8.996.434l.758.759-.059-8.897c-.006-.977-1.523-.98-1.516 0M304.408 235.69l-.407 8.54c-.02.4.35.696.729.715 2.791.143 5.55.004 8.316-.382.22-.031.476-.284.508-.5.202-1.327.35-2.656.378-3.998.02-.956.254-2.478-.28-3.344-.432-.7-1.23-.685-1.988-.798l-4.777-.707c-.918-.136-1.314 1.243-.387 1.38l2.866.425c.559.083 2.491.069 2.866.425.48.455.253 2.024.241 2.619a27.671 27.671 0 0 1-.324 3.617l.51-.5a41.772 41.772 0 0 1-7.93.331l.73.716.407-8.539c.045-.921-1.414-.919-1.458 0M320.855 234.642a55.772 55.772 0 0 0-.847 10.619c.01.57.635.919 1.14.643 2.658-1.45 5.637-1.065 8.532-1.518 2.023-.316 2.532-1.072 2.247-3.034-.214-1.479-.493-2.952-.74-4.425-.162-.976-.088-2.49-.761-3.285-.416-.49-1.019-.533-1.612-.584-1.635-.142-3.369.02-5.01.029-.976.006-.979 1.495 0 1.489l3.34-.02c1.468-.007 1.87-.245 2.313 1.157.494 1.563 1.018 4.034.94 5.633-.102 2.134-1.567 1.667-3.18 1.779-.755.052-1.51.083-2.264.162-1.637.171-3.126.544-4.57 1.331l1.14.643a53.691 53.691 0 0 1 .794-10.223c.165-.938-1.296-1.34-1.462-.396M338.186 233.604a99.169 99.169 0 0 0-1.184 8.634c-.037.41.367.763.732.762l9.438-.009c.398 0 .728-.349.732-.762l.052-5.241c.01-1 .248-2.255-.497-3.034-.63-.659-1.693-.64-2.52-.73a42.107 42.107 0 0 0-5.207-.218c-.94.015-.944 1.54 0 1.525a44.562 44.562 0 0 1 3.128.049c.807.045 3.05-.047 3.496.628.468.706.13 2.456.122 3.277l-.037 3.744.731-.762-9.438.008.732.763a94.447 94.447 0 0 1 1.131-8.229c.175-.959-1.235-1.37-1.411-.405M353.324 234.248l-.02 4.77c-.003.86-.257 2.178.202 2.988.875 1.542 4.048.83 5.415.829 1.866-.002 3.703-.195 4.616-2.121 1.1-2.323-.135-4.988.088-7.4.039-.427-.371-.742-.737-.763l-9.178-.55c-.948-.056-.945 1.472 0 1.528l9.178.55-.738-.765c-.155 1.677.382 3.203.371 4.861-.018 2.959-1.98 3.137-4.302 3.13-.762-.001-1.717.16-2.458-.006-1.098-.247-.99-.313-.985-1.546l.022-5.505c.003-.983-1.471-.984-1.474 0M303.898 248.576a26.27 26.27 0 0 0-.83 8.699.765.765 0 0 0 .781.714l10.384.011c.547 0 .837-.454.753-.904a20.671 20.671 0 0 1-.069-7.375c.063-.368-.097-.783-.545-.878-1.33-.281-2.67-.485-4.036-.554a21.671 21.671 0 0 0-2.326.01c-.513.03-1.409.326-1.844.084l.36.806-.133.136-.945-.111.12.098c.748.61 1.855-.396 1.104-1.01l-.12-.098a.867.867 0 0 0-.947-.112c-.352.18-.523.35-.586.717-.054.323.039.628.36.806.922.512 1.987.138 3.018.097 1.887-.076 3.722.119 5.56.508l-.546-.878a22.748 22.748 0 0 0 .068 8.134l.754-.903-10.384-.012.781.714a25.033 25.033 0 0 1 .774-8.32c.236-.892-1.27-1.273-1.506-.38M321.413 249.555c-.248 1.61-.406 3.222-.399 4.85.005.92-.179 2.358.65 3.068.859.733 2.588.488 3.619.487 2.033-.005 4.048-.177 6.06-.44.333-.044.567-.411.57-.7l.04-4.76c.006-.805.261-2.02-.485-2.639-.768-.638-2.191-.362-3.1-.361l-5.485.002c-1 0-1.002 1.45 0 1.45 1.218 0 2.437 0 3.656-.002.59 0 3.19-.348 3.657-.002.553.41.2 1.922.195 2.571l-.031 3.741.57-.698a44.598 44.598 0 0 1-4.179.36c-.753.027-2.997.363-3.67-.024-1.334-.766-.354-5.327-.17-6.517.14-.913-1.356-1.307-1.498-.386M336.844 248.855l-.841 9.407c-.048.53.521.801.962.725a84.12 84.12 0 0 1 10.274-1.11c.41-.02.762-.33.761-.753l-.01-8.178c0-.316-.234-.655-.558-.726-1.603-.35-10.062-2.892-9.838.602.063.962 1.585.968 1.522 0-.041-.639 7.007.652 7.912.85l-.559-.726.01 8.178.76-.752a87.424 87.424 0 0 0-10.678 1.164l.963.726c.28-3.135.56-6.27.842-9.407.086-.964-1.436-.958-1.522 0M352.725 248.839l-.34 8.434c-.014.362.355.764.745.724l11.124-1.14c.386-.039.765-.3.745-.723-.106-2.229-.2-4.458-.318-6.685-.048-.898 0-1.72-.887-2.187-.967-.507-3.132-.123-4.19-.121l-6.885.009c-.958 0-.96 1.45 0 1.448l9.037-.011c1.159-.002 1.063-.263 1.435.862.2.602.07 1.463.1 2.088l.219 4.597.744-.725-11.124 1.14.745.724.34-8.434c.037-.932-1.453-.931-1.49 0M301 264.975l.029 8.297c0 .383.355.742.777.728l6.75-.229c.928-.032 2.265.143 3.05-.446.907-.682 1.018-2.44 1.242-3.384.474-1.991.842-4 1.142-6.02.065-.442-.19-.941-.75-.92l-9.722.36c-.998.036-1.003 1.491 0 1.454l9.722-.36-.75-.921a72.822 72.822 0 0 1-.727 4.15c-.217 1.048-.299 3.241-.986 4.102-.7.878-2.826.55-3.909.587l-5.062.172.778.727-.028-8.297c-.004-.936-1.56-.938-1.556 0M320.091 263.696c-.11 3.194-.12 6.387-.029 9.582.011.377.335.739.75.721l4.777-.2c1.229-.052 2.808.158 3.972-.224 1.962-.644 1.668-3.663 1.91-5.257.195-1.283 1.32-4.159-.461-4.875-.783-.314-1.916-.137-2.739-.138-1.615 0-3.23-.001-4.844-.003-.966 0-.968 1.442 0 1.442l5.217.003 1.49.002a2.42 2.42 0 0 1 .11 1.731c-.048.844-.259 1.709-.386 2.546-.104.685-.035 1.955-.386 2.546-.576.967-1.72.694-2.69.735l-5.97.25.75.721c-.09-3.195-.081-6.388.03-9.582.031-.928-1.47-.927-1.5 0M336.291 263.717l.027 9.54c.001.378.335.772.734.741 4.07-.312 8.139-.412 12.22-.3.49.013.817-.483.707-.938-.8-3.313-1.06-6.62-.808-10.017.035-.474-.498-.851-.929-.715a34.035 34.035 0 0 1-11.534 1.598c-.944-.03-.943 1.451 0 1.482 4.08.133 8.028-.413 11.925-1.65l-.929-.715c-.262 3.533.03 6.972.86 10.411l.708-.939c-4.081-.11-8.15-.011-12.22.301l.733.741-.027-9.54c-.002-.953-1.47-.955-1.467 0M352.143 264.201a29.103 29.103 0 0 0 .57 9.267c.1.456.709.671 1.105.435 2.625-1.564 5.661-1.122 8.555-1.739 2.355-.501 2.22-1.804 2.42-3.944.143-1.52.752-3.614-1.145-4.285-1.203-.426-2.868-.32-4.122-.443l-5.017-.488c-.962-.093-.956 1.362 0 1.455 2.16.21 4.581.159 6.689.65.634-.08 1.153.123 1.556.612.724.223.94.661.646 1.317.124.804-.127 3.02-.749 3.571-.883.781-4.116.497-5.378.668-1.533.208-2.894.583-4.215 1.37l1.105.435a27.868 27.868 0 0 1-.516-8.88c.093-.932-1.412-.926-1.504 0"/>
        <path fill="#4A69FF" d="M369.726 243.385c22.176.636 44.364.779 66.547.428.968-.015.97-1.4 0-1.384-22.183.35-44.371.208-66.547-.429-.969-.028-.968 1.357 0 1.385"/>
        <path fill="#4A69FF" d="M437 242.715l.457 18.844c.132 5.482-.481 11.616 1.091 16.922.27.91 1.69.523 1.418-.394-.805-2.713-.773-5.509-.841-8.314l-.222-9.18-.433-17.878c-.023-.951-1.493-.955-1.47 0M373.377 248.728l-.376 9.51c-.017.408.363.727.764.74a47.43 47.43 0 0 0 9.596-.69c.338-.058.547-.409.561-.714a68.57 68.57 0 0 0-.338-10.808c-.044-.4-.314-.74-.764-.74l-8.774-.026c-.984-.003-.985 1.478 0 1.481l8.774.026-.765-.741c.398 3.6.51 7.193.339 10.808l.561-.714c-3.05.529-6.096.732-9.19.637l.764.74c.125-3.17.25-6.34.377-9.51.037-.953-1.491-.951-1.529 0M390.339 248.558l-.011 5.636c-.002.907-.352 2.514.361 3.277.782.836 2.59.432 3.554.428l6.04-.03a.728.728 0 0 0 .717-.718l-.014-9.231c0-.38-.328-.728-.717-.718-3.198.083-6.388.017-9.58-.2-.92-.063-.917 1.374 0 1.436 3.192.217 6.383.284 9.58.2l-.717-.718.014 9.231.717-.718-4.53.022c-.702.003-3.432.379-3.885-.065-.466-.456-.106-2.895-.104-3.605l.008-4.227c.002-.924-1.431-.926-1.433 0M406.21 248.22l.39 9.038c.017.386.328.76.746.741l5.24-.244c1.076-.05 2.566.158 3.567-.204 1.815-.657 1.765-3.755 1.815-5.328.05-1.533.264-4.574-1.68-5.1-1.197-.322-2.884.08-4.104.165l-5.467.384c-.952.066-.96 1.548 0 1.481l6.248-.438c.67-.047 2.18-.455 2.79-.18.98.442.75 2.837.722 3.688-.03.964.016 2.424-.466 3.281-.497.883-1.297.67-2.301.716l-6.364.298.745.74-.39-9.038c-.041-.95-1.532-.955-1.49 0M423.265 248.302c-.54 3.152-.264 6.184.924 9.164.109.273.367.566.705.531l6.052-.625c.747-.077 2.08.023 2.655-.6.589-.635.353-1.863.349-2.602l-.028-5.969c-.002-.406-.335-.703-.732-.724l-9.095-.476c-.941-.049-.938 1.4 0 1.449l9.095.475-.731-.724c.005 1.244.011 2.487.018 3.73.002.522.378 3.35.018 3.73-.522.551-2.71.383-3.44.458l-4.16.43.704.532c-1.082-2.716-1.418-5.508-.923-8.394.156-.911-1.254-1.303-1.411-.385M373.013 263.097c-.059 3.364.08 6.714.418 10.063.04.409.315.753.761.756l6.572.035c1.033.006 2.589.306 3.331-.656.776-1.006.51-3.1.59-4.267.145-2.076.245-4.155.315-6.236.014-.41-.36-.755-.762-.756l-8.463-.036c-.98-.004-.981 1.509 0 1.513l8.463.036-.761-.757c-.048 1.43-.109 2.86-.191 4.289-.076 1.324.067 3.006-.301 4.283-.325 1.12-.774 1.082-1.81 1.077l-2.055-.011-4.928-.027.761.757a85.075 85.075 0 0 1-.417-10.063c.017-.974-1.506-.974-1.523 0M388.598 264.162c-.384 2.339-1.2 6.167.146 8.336 1.262 2.037 5.108 1.323 7.092 1.332 1.604.006 5.055.766 5.943-.975.49-.96.02-2.538-.034-3.574l-.337-6.551c-.019-.365-.324-.765-.737-.728l-10.727.969c-.937.085-.947 1.54 0 1.455 3.576-.322 7.15-.645 10.727-.969l-.738-.727.337 6.55c.027.526.414 2.55.064 2.926-.353.38-2.18.16-2.73.165-1.805.015-4.488.442-6.186-.086-2.824-.877-1.759-5.54-1.398-7.736.15-.916-1.27-1.31-1.422-.387M406.001 264.07l.33 5.74c.048.82-.117 2.16.616 2.782.704.596 2.043.364 2.863.361 2.11-.01 4.221-.018 6.333-.026a.771.771 0 0 0 .778-.734c.095-2.906.105-5.81.027-8.717-.009-.308-.235-.639-.571-.707a37.801 37.801 0 0 0-9.5-.72c-.997.05-1.003 1.518 0 1.466 3.068-.156 6.079.058 9.086.668l-.571-.707c.077 2.906.068 5.811-.028 8.717l.779-.733-3.959.016c-.638.003-3.451.394-3.958.017-.661-.493-.4-2.76-.441-3.477l-.227-3.946c-.054-.938-1.61-.945-1.557 0M423.42 264.376c-.132 2.318-.291 4.637-.394 6.957-.046 1.043-.159 2.085 1.008 2.518.695.259 1.658.092 2.385.092h3.76c1.293-.001 3.32.36 4.313-.716.898-.972.37-2.466.184-3.615-.318-1.958-.29-4.735-1.103-6.552-.463-1.036-1.276-1.112-2.324-1.04-2.475.173-4.948.45-7.42.674-.953.086-.962 1.559 0 1.471l3.906-.354c.93-.084 3.054-.708 3.905-.355 1.06.44.937 2.536 1.098 3.522.25 1.537.92 3.298.07 4.637-.713 1.126-.939.855-2.212.856h-2.088c-.818 0-3.405.378-3.892-.182-.502-.579.02-2.9.064-3.662l.24-4.251c.053-.947-1.448-.943-1.5 0M374.69 279.61a33.018 33.018 0 0 1 7.05.293l-.526-.745.174 7.25c.018.765.35 2.405-.167 2.937-.3.308-2.273.02-2.736.022-.595.005-1.698.268-2.132-.173-.303-.308.002-2.957.002-3.463l.004-6.928c0-.994-1.431-.995-1.432 0l-.002 5.196c-.001 1.657-.24 3.563-.004 5.195.31 2.142 1.803 1.731 3.564 1.719 1.42-.01 3.848.607 4.374-1.303.342-1.244-.042-3.287-.072-4.561l-.141-5.891c-.007-.303-.215-.698-.526-.745a34.771 34.771 0 0 0-7.43-.348c-.917.056-.923 1.602 0 1.545M399.817 278.396a43.526 43.526 0 0 0-9.065-.278c-.47.035-.867.468-.721.978.557 1.943.943 3.906 1.046 5.935.055 1.082-.253 2.47.107 3.498.727 2.082 3.99 1.343 5.566 1.346 1.578.003 4.366.586 5.06-1.41.43-1.238.013-3.118-.122-4.392a59.707 59.707 0 0 0-.788-5.15c-.19-.973-1.634-.56-1.444.412.449 2.301 1.054 4.87.939 7.234-.08 1.645-.24 1.732-1.792 1.764-.987.02-1.978-.003-2.965-.005-1.119-.002-2.502.427-3.048-.952-.29-.734 0-2.298-.068-3.125-.157-1.895-.525-3.743-1.048-5.566l-.722.978a43.526 43.526 0 0 1 9.065.278c.953.128.944-1.417 0-1.545M414.368 278.492a17.907 17.907 0 0 0-7.836-.113c-.288.06-.555.409-.53.712.26 3.266.244 6.705.796 9.932.36 2.116 2.296 2.024 4.102 1.946 1.591-.068 4.848-.205 5.795-1.77.524-.865.224-2.105.178-3.041l-.283-5.794c-.047-.944-1.492-.95-1.446 0 .095 1.93.19 3.862.283 5.794.073 1.467.213 2.166-1.422 2.833-.95.388-2.097.462-3.105.504-1.215.052-2.12-.147-2.735-1.39-.374-.753-.193-2.425-.26-3.278-.154-1.912-.305-3.824-.458-5.736l-.53.71c2.396-.49 4.686-.45 7.066.112.905.213 1.292-1.207.385-1.421M433.703 279.682c.773-1.153-.066-2.356-1.322-2.595-1.214-.23-2.59.059-3.81.133l-4.833.296c-.4.024-.73.314-.736.728-.03 2.452.233 4.845.781 7.234.21.914 1.628.527 1.418-.386a28.874 28.874 0 0 1-.728-6.848l-.735.729 4.488-.275 2.071-.126c.065-.005 2.504-.174 2.136.375-.525.783.749 1.514 1.27.735M523.727 207l45.546-1.572c.967-.033.972-1.46 0-1.427l-45.546 1.57c-.967.034-.972 1.462 0 1.428"/>
        <path fill="#4A69FF" d="M569 205.723l1.687 64.554c.025.962 1.338.966 1.313 0l-1.687-64.554c-.025-.962-1.338-.966-1.313 0M527.813 212.08a214.412 214.412 0 0 0-.798 21.16.753.753 0 0 0 .736.745l8.768.015c.333 0 .613-.233.71-.547.795-2.56.778-5.169.769-7.83-.01-3.395-.024-6.79-.036-10.184-.006-1.651.184-3.244-1.632-3.737-2.543-.69-5.66-.485-8.29-.7-.944-.076-.94 1.415 0 1.491 1.987.162 4.147.096 6.1.496.908-.06 1.69.27 2.344.994l.007 1.94.012 3.395c.016 4.428.633 9.465-.694 13.739l.71-.547-8.768-.016.736.745c-.082-7.066.184-14.12.798-21.16.084-.954-1.39-.948-1.472 0M542 212.837l.407 17.798c.028 1.172-.403 3.355.89 4.095.795.455 2.155.2 2.998.192l4.854-.048c.417-.004.77-.335.77-.738l.024-19.544c.001-1.238.405-2.783-.953-3.408-.783-.36-2.047-.082-2.902-.08l-4.957.015c-.992.003-.993 1.48 0 1.478l3.605-.012c.462-.001 3.368-.304 3.605-.01.357.442.06 2.406.06 2.995l-.004 3.42-.018 15.146.77-.739-3.883.038c-.786.007-2.675.247-3.263-.395-.385-.42-.063-2.756-.077-3.367l-.077-3.367-.308-13.469c-.022-.949-1.563-.952-1.54 0M556 213.104c.09 6.246.207 12.507.575 18.744.074 1.254.018 2.586 1.483 3.011 1.012.294 2.472.038 3.507.03l4.65-.037c.418-.004.793-.342.785-.752l-.45-22.314a.781.781 0 0 0-.784-.75l-8.605-.036c-1.01-.004-1.01 1.499 0 1.503l8.605.035-.784-.752.45 22.314.784-.75c-2.05.015-4.497.402-6.512.05-1.787-.31-1.529-.821-1.607-2.539a565.341 565.341 0 0 1-.528-17.757c-.014-.966-1.583-.969-1.569 0M540.123 241.501c-.28 7.24-.083 14.47.59 21.686.038.407.317.747.759.752 2.124.02 4.251.072 6.376.059 1.07-.008 2.153.105 2.791-.912.6-.955.275-2.476.256-3.525a30653.35 30653.35 0 0 1-.24-13.153c-.02-1.14.401-3.179-.205-4.201-.636-1.07-1.808-.978-2.992-1.168l-6.416-1.028c-.955-.153-1.366 1.296-.402 1.45l4.123.661c.678.109 3.613.151 4.124.661.608.608.244 3.275.26 4.112l.08 4.384.16 8.77c.02 1.139.218 1.234-.757 1.952-.867.641-1.597.485-2.604.476l-4.554-.042.758.752a164.876 164.876 0 0 1-.589-21.686c.037-.968-1.48-.966-1.518 0M556.122 240.238c-.164 7.868-.29 15.74.51 23.58.045.45.312.703.756.76 3.285.422 6.55.527 9.855.317.398-.026.77-.328.757-.76l-.644-21.002c-.045-1.47.334-2.999-1.284-3.469-1.278-.37-2.953-.22-4.28-.313l-4.984-.349c-.972-.068-.968 1.452 0 1.52 2.416.17 4.832.347 7.25.508.28.019 1.53-.079 1.723.103.2.189.052 1.695.062 2l.137 4.5c.17 5.5.338 11.001.506 16.502l.757-.76c-3.305.21-6.57.106-9.855-.316l.757.76c-.8-7.842-.674-15.713-.51-23.58.021-.98-1.492-.979-1.513 0M529.348 298.503l7.879.943-.773-.749-1.196 19.555.772-.749c-2.42 0-4.839-.002-7.257-.003l.772.749.672-20.266c.032-.963-1.512-.962-1.544 0L528 318.249c-.013.404.365.748.773.748l7.257.003c.435 0 .747-.344.772-.748l1.197-19.555c.026-.439-.38-.702-.772-.748l-7.879-.942c-.984-.118-.975 1.38 0 1.496M542.529 318.463a151.54 151.54 0 0 0 2.332-19.72l-.769.743 4.438.242c1.327.073 2.271-.254 2.686.911.384 1.076.005 3.039.006 4.212l.007 4.212c.002 2.247 1.046 7.136-1.618 8.18-.83.325-2.476-.017-3.375-.03l-4.493-.062c-.99-.014-.99 1.47 0 1.485 2.097.029 4.193.068 6.29.087 1.268.012 2.762.163 3.782-.734 1.887-1.657.955-5.892.953-7.99l-.009-6.084c-.002-1.253.486-3.417-.147-4.57-.401-.735-.796-.82-1.616-.967-2.208-.397-4.665-.255-6.904-.377-.43-.023-.749.36-.769.743a148.424 148.424 0 0 1-2.277 19.324c-.173.935 1.308 1.336 1.483.395M556 309.297c.01 3.281.018 6.564.027 9.845a.76.76 0 0 0 .757.741c2.397.019 4.867.211 7.259.058 1.093-.07 2.013-.196 2.553-1.234.736-1.414.241-3.776.244-5.292l.02-7.7c.001-.953-1.512-.954-1.514 0l-.025 10.106c-.003 1.16.28 2.026-1.278 2.64-.573.224-1.665-.015-2.269-.02-1.663-.012-3.327-.026-4.99-.04l.757.741c-.01-3.281-.018-6.564-.027-9.845-.003-.953-1.517-.955-1.514 0M443.723 326.55l107.653.35 30.9.1c.964.003.966-1.547 0-1.55l-107.652-.35-30.9-.1c-.964-.004-.966 1.547 0 1.55M531.554 203.297c-.04-4.206.107-8.404.443-12.599.076-.933-1.473-.929-1.547 0a140.866 140.866 0 0 0-.444 12.6c.01.935 1.557.937 1.548 0"/>
        <path fill="#4A69FF" d="M531.728 190.55l21.567.548 4.902.124c1.31.033 5.348-.49 6.17.714.484.71-.275 4.205-.335 5.127l-.402 6.151 1.286-.547-.534-.625c-.641-.75-1.704.349-1.066 1.096l.535.624c.462.541 1.246.073 1.286-.548l.47-7.177c.091-1.408.676-3.634.223-4.945-.34-.984-.788-1.128-1.751-1.27-2.058-.301-4.298-.109-6.373-.161l-25.978-.66c-.97-.025-.97 1.524 0 1.548"/>
        <path fill="#4A69FF" d="M539.697 188.399l-.005-7.436-.002-2.787c-.001-1.545-.63-2.87 1.297-3.299 2.061-.46 4.703-.131 6.838-.19l7.815-.22-.759-.733 1.6 16.563c.09.929 1.594.946 1.516 0l-.102-1.245c-.077-.936-1.594-.944-1.517 0l.102 1.245h1.517l-1.6-16.563c-.036-.386-.316-.746-.757-.734l-9.769.273-4.395.123c-.722.02-2.004-.115-2.659.365-1.32.969-.644 4.054-.643 5.344l.007 9.294c0 .944 1.517.946 1.516 0"/>
        <path fill="#4A69FF" d="M545.484 172.645l.189-16.203-.742.734c1.18-.153 4.576-1.192 5.492-.12.312.364.37 2.634.433 3.202.103.931.193 1.864.272 2.798.318 3.738.426 7.485.378 11.235-.013.945 1.471.946 1.484 0 .068-5.314-.201-10.62-.87-15.895-.135-1.063-.17-2.517-1.267-3.103-1.452-.777-4.391.217-5.922.415-.402.051-.737.293-.742.734L544 172.645c-.01.945 1.473.945 1.484 0M522.583 206.726c.043 39.2-.818 78.396-2.582 117.55-.043.967 1.372.964 1.416 0a2549.857 2549.857 0 0 0 2.581-117.55c0-.967-1.417-.969-1.415 0M526.962 241.688l-.961 20.88c-.02.432.354.727.735.758l8.23.672c.415.034.71-.376.735-.759.405-6.276.425-12.593-.106-18.863-.115-1.352-.121-3.147-1.467-3.888-1.693-.931-4.843-.245-6.683-.238-.945.004-.947 1.52 0 1.517 1.998-.007 5.742-.868 6.597 1.619.626 1.82.33 4.545.4 6.446.164 4.472.078 8.943-.211 13.407l.735-.758-8.23-.672.735.758.961-20.879c.045-.976-1.425-.974-1.47 0M528 271.793l.015 22.462c0 .387.34.765.742.744 2.011-.1 4.472.118 6.434-.353.617-.149 1.205-.328 1.557-.914.57-.947.013-2.55-.11-3.498a77.564 77.564 0 0 1-.58-6.666 79.95 79.95 0 0 1-.043-5.821c.042-1.415.668-3.737.099-5.117-.826-2-5.406-1.472-7.064-1.626-.95-.089-.944 1.401 0 1.489 1.143.106 2.433.066 3.549.328 2.09.492 2.121 1.02 2.015 2.987a79.233 79.233 0 0 0-.04 7.76c.103 2.334.472 4.639.615 6.963.294.957.103 1.852-.573 2.686l-1.953.098-3.906.195.741.745-.015-22.462c0-.959-1.483-.96-1.483 0M543.309 272.574a271.546 271.546 0 0 0-.21 20.294c.012.445.342.697.76.751 2.128.276 4.235.401 6.381.378.4-.004.775-.34.76-.751l-.626-17.159c-.05-1.371.478-4.34-.488-5.463-.897-1.043-3.544-.468-4.74-.452-.977.013-.98 1.516 0 1.503.765-.01 2.4-.348 3.089-.018.631-.127.796.205.495.998l.053 1.47.233 6.374.465 12.747.76-.751a45.524 45.524 0 0 1-6.382-.379l.759.752a271.546 271.546 0 0 1 .21-20.294c.046-.966-1.473-.964-1.52 0M559.627 283.275c-.008-2.645-.015-5.29-.024-7.934-.003-1.234-.364-2.874.507-3.78.56-.582 5.377-1.67 5.359-.297-.013.966 1.518.967 1.53 0 .02-1.368-.856-2.149-2.245-2.241-1.554-.104-4.485.134-5.752 1.016-1.374.956-.937 2.92-.933 4.369.01 2.955.018 5.911.027 8.867.003.966 1.534.968 1.53 0M546.695 132.714a183.952 183.952 0 0 0-.61 21.566c.028.958 1.33.962 1.301 0a183.952 183.952 0 0 1 .61-21.566c.083-.956-1.219-.949-1.3 0M192 134.732v20.536c0 .975 1 .977 1 0v-20.536c0-.975-1-.977-1 0M505.634 161.928a366.017 366.017 0 0 1-27.646-17.806c-.505-.358-1.109.136-1.145.647a341.813 341.813 0 0 0-.34 42.51c.051.958 1.573.965 1.52 0a341.813 341.813 0 0 1 .342-42.51l-1.145.646a365.954 365.954 0 0 0 27.646 17.805c.845.492 1.611-.801.768-1.292"/>
        <path fill="#4A69FF" d="M476.717 186.214a81.996 81.996 0 0 0-12.599 15.668c-.513.827.778 1.587 1.288.764a80.368 80.368 0 0 1 12.366-15.362c.696-.674-.36-1.743-1.055-1.07"/>
        <path fill="#4A69FF" d="M463.268 201.511a137.31 137.31 0 0 0-9.53-.51c-.984-.02-.984 1.466 0 1.484 3.184.06 6.359.23 9.53.511.98.087.973-1.398 0-1.485M500.626 166.629a113.28 113.28 0 0 1-17.328-11.436c-.488-.392-1.27-.174-1.276.537-.062 6.16.006 12.322.226 18.478.107 2.995.248 5.989.424 8.98.09 1.552-.398 4.425.805 5.596.3.292.755.284 1.057 0l.196-.185c.317-.298.248-.767 0-1.075l-.127-.157c-.611-.756-1.663.325-1.057 1.075l.127.157v-1.075l-.196.185h1.057c-.52-.505-.294-3.292-.338-4.022a388.063 388.063 0 0 1-.534-11.975 404.805 404.805 0 0 1-.145-15.982l-1.277.538a115.329 115.329 0 0 0 17.631 11.674c.85.456 1.607-.856.755-1.313"/>
        <path fill="#4A69FF" d="M499.537 167.71a507.194 507.194 0 0 0-2.037 26.541l.923-.715c-3.327-1.077-6.606-2.294-9.811-3.704-1.299-.571-3.807-2.592-5.253-1.856-.405.205-.486.862-.147 1.166l.113.101c.358.321.885.273 1.145-.15l.049-.08c.5-.812-.762-1.558-1.26-.75l-.049.08 1.146-.15-.113-.101-.148 1.166c.296-.15 2.9 1.464 3.374 1.675 1.007.448 2.02.883 3.04 1.3a106.154 106.154 0 0 0 7.526 2.734c.474.154.9-.254.924-.716a507.195 507.195 0 0 1 2.036-26.542c.098-.949-1.362-.942-1.458 0M497.657 199.85a115.49 115.49 0 0 0-8.953-5.64 103.054 103.054 0 0 0-4.457-2.388c-.75-.378-1.685-.983-2.568-.782-.993.225-1.714 1.333-2.336 2.034a630.298 630.298 0 0 0-3.544 4.033c-1.283 1.472-2.567 2.943-3.828 4.434-.436.515-1.002.956-.97 1.682.018.404.334.797.76.776l.162-.008c.403-.02.771-.34.76-.776l-.003-.122c-.024-.997-1.543-1-1.52 0l.003.122.76-.776-.162.008.76.776c-.023-.522 2.06-2.372 2.434-2.806a610.879 610.879 0 0 1 6.435-7.339c1.075-.25 2.044-.083 2.908.503 4.418 1.76 8.688 4.904 12.592 7.608.811.563 1.573-.782.767-1.34"/>
        <path fill="#4A69FF" d="M497.434 200.843c.445 1.458-5.266.949-5.82.943-2.046-.02-4.092 0-6.137.06a162.47 162.47 0 0 0-11.766.786c-.943.096-.953 1.46 0 1.363 5.789-.59 11.605-.89 17.43-.849 2.013.015 8.877 1.088 7.73-2.665-.257-.844-1.696-.485-1.437.362M498.473 207.363a446.21 446.21 0 0 0-42.111.29c-.304.016-.67.226-.725.568l-.625 3.796c-.074.449.194 1.03.726.98 9.635-.895 19.301-1.794 28.987-1.589 2.253.048 4.504.156 6.75.335 1.987.16 4.484.932 6.447.344 1.846-.553 2.883-2.866 1.303-4.321-.72-.663-1.787.43-1.063 1.095-.568 1.386-1.38 1.973-2.435 1.761-.456-.046-.91-.097-1.365-.153-.8-.085-1.603-.165-2.405-.233-1.765-.151-3.532-.256-5.301-.322-3.38-.125-6.765-.103-10.145.013-6.94.237-13.86.879-20.773 1.52l.725.982.624-3.796-.725.568a446.21 446.21 0 0 1 42.11-.289c.969.039.967-1.51 0-1.549M498.274 215.002a687.576 687.576 0 0 1-41.19 1.115c-.41-.001-.75.33-.754.718a26.463 26.463 0 0 1-.318 3.975c-.075.479.196.878.728.91 9.28.56 18.572.158 27.853-.142 2.223-.07 4.446-.142 6.669-.215 1.604-.05 3.39.088 4.936-.414 1.875-.608 3.124-2.575 1.808-4.257-.573-.733-1.884-.017-1.303.726 1.66 2.12-1.902 2.36-2.717 2.417-.747.053-1.5.052-2.248.077-1.588.05-3.176.102-4.763.153-3.368.109-6.737.222-10.106.324-6.711.201-13.423.298-20.129-.106l.728.91c.23-1.452.36-2.887.371-4.358l-.754.719c13.74.04 27.474-.332 41.189-1.116.965-.054.972-1.492 0-1.436M497.856 225.107c-8.763.985-17.564.75-26.356.41-2.082-.08-4.163-.164-6.245-.236-1.97-.067-4.404-.51-6.359-.126-2.834.557-1.72 3.767-1.474 5.963.046.414.303.775.744.774a505313.848 505313.848 0 0 1 34.838-.101c1.688-.004 4.279.512 5.871-.062 2.151-.773.604-4.467.34-6.056-.162-.98-1.597-.565-1.435.412.137.826.285 1.653.411 2.481.09.41.148.825.173 1.244.188.616-.126.756-.944.419-1.639.355-3.71.01-5.398.015l-11.285.034-22.571.065.744.775c-.088-.79-.323-1.798-.289-2.59.065-1.523.437-1.613 1.832-1.831 1.499-.235 3.285.082 4.802.134 3.683.125 7.365.292 11.048.408 7.195.225 14.39.222 21.553-.583.943-.106.953-1.656 0-1.55M497.714 234c-13.65.386-27.305.44-40.958.162-.407-.008-.758.339-.756.725l.015 4.242c.002.392.345.724.756.725l28.14.016 6.912.004c2.14.001 4.523.288 6.639-.008 2.75-.385.962-2.291 1.022-3.94.035-.933-1.477-.932-1.512 0-.028.786.783 1.96.269 2.502-.162.171-2.695-.002-2.962-.002l-2.962-.002-11.849-.006-23.697-.014.756.725-.015-4.242-.756.725c13.653.278 27.309.224 40.958-.162.97-.028.975-1.478 0-1.45M499.102 244l-42.35.176c-.376.002-.788.347-.75.757l.384 4.02c.04.42.311.743.75.757l29.447.983c2.495.083 4.99.17 7.486.25 1.303.04 2.803.226 4.01-.398 1.974-1.023 2.414-3.504 1.378-5.35-.475-.849-1.772-.087-1.295.764.747 1.333.256 2.915-1.288 3.417-.688.224-1.598.09-2.306.069-1.83-.054-3.66-.122-5.49-.183l-10.48-.35-21.462-.716.75.757-.383-4.02-.75.757 42.35-.176c.965-.004.967-1.518 0-1.514M498.195 253.003c-8.155.649-16.337.907-24.517.716-3.808-.088-7.786-.71-11.58-.48-2.237.136-4.278 1.43-4.085 3.879.032.423.314.71.741.742a436.281 436.281 0 0 0 41.532 1.025c.887-.02.941-1.153.197-1.457-1.17-.565-1.652-1.405-1.446-2.52.077-.951-1.407-.946-1.483 0-.153 1.892.823 3.253 2.535 3.951l.197-1.457a436.281 436.281 0 0 1-41.532-1.026l.742.742 2.603-2.395c.444-.018.887-.01 1.33.022.801.031 1.602.1 2.403.144a234.542 234.542 0 0 0 13.735.376c6.218-.013 12.43-.286 18.628-.78.946-.074.954-1.558 0-1.482M497.397 262.59L459.734 261c-.511-.02-.81.48-.717.919.319 1.52.585 3.043.798 4.581.046.322.422.519.718.533 12.895.609 25.799 1.194 38.712.879.447-.012.89-.46.717-.92l-1.192-3.16c-.327-.87-1.765-.494-1.434.385l1.192 3.162.717-.918c-12.913.316-25.817-.27-38.712-.879l.717.533a67.966 67.966 0 0 0-.799-4.582l-.717.918 37.663 1.59c.957.04.955-1.41 0-1.45M497.92 271.223l-38.531.174c-.245.001-.546.144-.652.39-.48 1.113-.719 2.138-.737 3.364a.783.783 0 0 0 .755.787l25.721.637 5.936.148c2.043.05 4.604.508 6.618.126 2.599-.494 1.655-2.843 1.96-4.86.149-.992-1.306-1.419-1.457-.418-.18 1.203.244 2.444-.606 3.252-1.083 1.03-4.074.385-5.526.35-3.627-.091-7.254-.181-10.882-.27l-21.764-.54.755.788c.04-2.702 1.823-2.187 3.83-2.196l4.94-.023 9.88-.044 19.76-.09c.971-.004.973-1.58 0-1.575M497.284 279l-22.677.467c-3.824.078-7.705-.034-11.519.245-1.668.12-3.497.611-3.975 2.472-.463 1.803.549 2.658 2.146 2.695 3.73.087 7.462.101 11.192.115 7.624.03 15.248-.048 22.87-.22.953-.02.956-1.532 0-1.51-5.838.13-11.677.209-17.517.223a860.6 860.6 0 0 1-16.058-.112c-1.07.14-1-.527.207-2 .845-.5 2.835-.195 3.78-.215l4.437-.09a220186.434 220186.434 0 0 1 27.114-.558c.953-.02.956-1.531 0-1.512"/>
        <path fill="#4A69FF" d="M496.016 280.992l.432 2.434c.074.418.593.654.98.55.447-.122.63-.548.556-.968l-.432-2.434c-.074-.419-.593-.654-.98-.55-.447.122-.63.548-.556.968M452 202.72c1.688 39.824 3.354 79.692 2.163 119.56-.028.96 1.406.96 1.434 0 1.19-39.868-.475-79.736-2.162-119.56-.04-.957-1.475-.963-1.434 0M498.23 305.333c-12.751-.61-25.51-1.054-38.271-1.333-.416-.009-.748.357-.756.762-.037 1.686-.9 4.842 1.236 5.468 1.66.486 4.076.104 5.783.138l6.395.126 25.582.506c.432.009.724-.357.755-.762a13.36 13.36 0 0 0-.321-4.211c-.221-.955-1.68-.55-1.459.405.296 1.283.373 2.5.268 3.806l.757-.761-21.155-.418-10.33-.204c-1.625-.033-3.303.053-4.92-.098-1.354-.126-1.1.14-1.138-1.221-.026-.922.04-1.854.06-2.774l-.757.761c12.762.279 25.52.723 38.27 1.333.974.047.972-1.476 0-1.523M499.074 314.25a388.045 388.045 0 0 1-39.13-.249c-.412-.024-.735.386-.747.8-.031 1.113-.584 3.398.312 4.333 1.008 1.053 3.741.716 5.006.83a254.957 254.957 0 0 0 31.21.903c1.117-.036 2.907.27 3.716-.848.888-1.224.44-3.809.486-5.227.033-1.03-1.461-1.03-1.494 0-.029.895.04 1.95-.091 2.835-.222 1.496-.239 1.374-1.642 1.606-1.72.282-3.623.11-5.367.137a256.346 256.346 0 0 1-21.95-.615c-1.949-.138-3.895-.299-5.84-.482-.729-.068-2.441.095-2.935-.473-.29-.334.071-2.594.083-2.998l-.747.8c13.035.742 26.089.825 39.13.25.959-.042.964-1.643 0-1.601M504.582 162.725c.035 42.229-.474 84.456-1.54 126.669A4916.78 4916.78 0 0 1 502 325.275c-.032.967 1.384.966 1.415 0a4849.805 4849.805 0 0 0 2.582-162.55c0-.966-1.416-.968-1.416 0M462.715 289.599c11.447.618 22.9 1.11 34.357 1.475l-.744-.798c.076 2.106.633 2.92-1.61 2.992a262.582 262.582 0 0 1-26.984-.527c-1.777-.126-4.612.17-5.718-1.702-.41-.693-.091-1.368-.746-2.077-.675-.73-1.728.399-1.052 1.13.816.883.046 2.434 1.077 3.34 1.08.948 3.234.661 4.48.76a261.923 261.923 0 0 0 28.451.689c.934-.028 2.546.277 3.315-.59.806-.91.313-2.947.275-4.015-.016-.442-.328-.786-.744-.8-11.457-.364-22.91-.857-34.357-1.475-.957-.051-.955 1.546 0 1.598M460.823 297.531l37.424 2.455-.753-.765v3.013l.753-.764-18.52-1.114-8.772-.528-4.874-.293-1.95-.117c-.035-.002-4.51-.257-3.382-1.278.725-.656-.343-1.735-1.064-1.082-1.277 1.156-.64 2.902.852 3.505 1.596.646 3.855.4 5.544.502l6.336.38 25.83 1.554c.406.024.753-.37.753-.765v-3.013c-.001-.432-.347-.737-.753-.764l-37.424-2.455c-.968-.064-.964 1.466 0 1.53M280.402 143.726c-.132 1.516-.265 3.033-.399 4.548-.085.97 1.51.965 1.595 0l.399-4.548c.085-.97-1.51-.965-1.595 0M274.729 150.686l4.542.312c.974.066.97-1.618 0-1.684l-4.542-.312c-.974-.067-.97 1.618 0 1.684M286.766 149.889a14.433 14.433 0 0 1 3.477.102c1.014.153 1.005-1.677 0-1.828a14.433 14.433 0 0 0-3.477-.103c-1.017.093-1.026 1.922 0 1.829M280.52 153.512a7.97 7.97 0 0 0-.466 3.762c.112.962 1.593.974 1.48 0a6.978 6.978 0 0 1 .413-3.357c.345-.914-1.085-1.31-1.428-.405"/>
        <path fill="#AAA" d="M477.844 16.234c-1.119-2.977.676-6.036 3.453-7.265 2.933-1.297 6.209-.672 9.166.203.541.16 1.074-.38.916-.924-1.03-3.563 1.63-7.385 5.511-6.656 3.018.567 4.652 3.486 6.016 5.981.236.431.833.48 1.17.152 2.71-2.64 6.965-2.385 9.194.723 1.774 2.473 2.033 5.76 2.24 8.704l.744-.75c-12.974.23-25.95.05-38.912-.544-.958-.044-.956 1.458 0 1.501 12.963.594 25.938.775 38.912.544.381-.007.774-.34.744-.75-.274-3.92-.738-8.548-4.004-11.193-2.998-2.428-7.288-1.91-9.971.704.39.05.78.1 1.17.152-1.907-3.487-4.632-7.44-9.138-6.733-4.081.64-6.227 4.71-5.113 8.564l.917-.924c-3.784-1.118-8.358-1.78-11.74.777-2.5 1.889-3.849 5.106-2.71 8.134.336.894 1.777.506 1.435-.4"/>
        <path fill="#000" d="M409.65 188.723l-.65 52.554c-.012.964 1.337.964 1.35 0l.65-52.554c.012-.964-1.337-.964-1.35 0M209.518 276.937c.741-1.93 1.893-3.952 3.887-4.946 2.126-1.06 5.143-.544 6.072 1.773.2.499.836.73 1.273.32 1.696-1.591 4.78-1.54 6.102.522 1.197 1.867.494 4.635.576 6.695.036.93 1.56.934 1.522 0-.12-3.017.84-6.936-2.28-8.926-2.212-1.411-5.144-1.054-6.997.684l1.273.32c-.98-2.443-3.591-3.711-6.295-3.304-3.45.519-5.497 3.602-6.601 6.476-.337.878 1.134 1.257 1.468.386"/>
        <path fill="#000" d="M233.13 281.44c-1.969-3.022-5.288-.736-6.36 1.81-1.073 2.551-3.37 7.983.7 8.993-.058-.466-.118-.931-.177-1.396-3.009 1.533-4.342 5.42-2.343 8.38 2.086 3.091 6.133 3.479 9.17 1.753 5.847-3.322 9.537-18.44.174-19.367-.95-.094-.944 1.434 0 1.528 6.98.691 3.95 12.203.659 15.337-1.959 1.864-4.922 2.777-7.331 1.255-2.978-1.88-2.633-6.01.42-7.567.572-.293.422-1.248-.177-1.397-2.366-.587-.76-3.927-.246-5.42.444-1.29 2.493-5.805 4.23-3.138.53.812 1.815.048 1.281-.771"/>
        <path fill="#000" d="M208.158 282.727c.06 2.39 1.155 4.252 3.222 5.397l-.15-1.183c-3.006 2.554-4.53 6.498-4.18 10.461.317 3.599 2.443 7.815 6.172 8.728 1.425.348 1.718.588 2.444 1.893.382.688.65 1.26 1.272 1.79 1.473 1.248 3.443 1.426 5.237.931 3.92-1.08 7.52-4.884 6.71-9.193-.179-.95-1.607-.548-1.43.4.91 4.84-7.986 11.104-10.49 5.346-.358-.822-.268-1.661-1.099-2.208-.753-.495-1.741-.229-2.578-.49-3.33-1.037-4.866-5.308-4.806-8.511.059-3.166 1.411-6.055 3.797-8.082.364-.309.242-.965-.15-1.182-1.621-.898-2.442-2.24-2.49-4.097-.024-.967-1.506-.971-1.481 0"/>
        <path fill="#000" d="M209.237 288.585c-.572-3.46-4.804-5.857-7.995-3.858-1.42.89-2.259 2.56-2.366 4.185-.065.978.162 1.805.52 2.7.537 1.345.484 1.162-.47 2.453-2.34 3.17-2.727 9.323-.162 12.424 2.936 3.552 8.27 3.228 11.058-.293.607-.765-.482-1.853-1.096-1.079-2.617 3.305-7.837 3.174-9.565-.956-1.379-3.296-.217-7.461 1.858-10.087 1.616-2.044-.449-2.207-.604-4.563-.32-4.881 6.572-5.093 7.328-.52.16.967 1.653.557 1.494-.406"/>
        <path fill="#000" d="M203.134 308.55c-.793 4.931 1.985 9.76 6.887 10.69 2.137.406 4.65.008 6.374-1.443 2.047-1.722 1.805-4.385 2.578-6.77l-1.44-.202-.882 16.444c-.053.976 1.412.973 1.464 0l.884-16.444c.047-.89-1.186-.98-1.44-.2-.52 1.61-.403 3.73-1.332 5.172-1.104 1.716-3.47 2.206-5.31 2.045-4.33-.377-7.06-4.604-6.37-8.89.153-.955-1.259-1.366-1.413-.403M219.708 315.999c3.714-.202 7.817-.52 10.605-3.382 2.828-2.904 2.341-7.13 2.683-10.892.088-.97-1.384-.964-1.47 0-.302 3.31.223 7.251-2.254 9.82-2.473 2.567-6.274 2.76-9.564 2.938-.941.052-.947 1.568 0 1.516"/>
        <path fill="#000" d="M218.649 285.734l-.076 12.477-.036 5.989-.018 2.994-.01 1.497c-.247.979-.16 1.241.262.789l.651.558-.074-.224c-.3-.908-1.606-.515-1.302.405.024.074.05.149.073.223.107.32.335.553.652.558.66.009.874-.337 1.057-1.003.259-.941.039-2.319.045-3.302l.027-4.491.1-16.47c.006-.978-1.345-.98-1.351 0"/>
        <path fill="#000" d="M213.107 297.035c.902 1.444 2.414 3.343 4.213 3.882 1.8.54 3.372-1.705 4.456-2.69.689-.625-.368-1.605-1.056-.98-.973.882-2.187 2.652-3.645 1.938-1.146-.561-2.054-1.85-2.678-2.85-.482-.771-1.774-.074-1.29.7M216.232 289.341l2.436 2.43c.714.712 1.814-.4 1.1-1.112l-2.437-2.43c-.713-.712-1.814.4-1.1 1.112M219.434 294.807l3.3-2.587c.796-.624-.376-1.648-1.169-1.027l-3.3 2.588c-.795.623.378 1.647 1.17 1.026M438.232 281.035c-4.505-2.142-10.577-2.186-13.363 2.709-2.263 3.975.105 9 4.653 9.49l-.65-1.14c-1.44 3.124-2.707 6.655-1.374 10.048.41 1.047 1.048 1.996 1.903 2.724.493.42 1.035.72 1.627.967 1.516.634 2.033.476 3.135 1.88 1.068 1.362.73 1.948.988 3.452.097.561.263 1.106.506 1.622.571 1.212 1.537 2.218 2.648 2.94a7.823 7.823 0 0 0 7.565.549c2.83-1.294 4.756-3.912 5.735-6.818.408-1.212.577-1.948 1.53-2.833.658-.609 1.475-.958 2.14-1.55 1.153-1.03 1.887-2.423 2.37-3.879 2.168-6.536 2.007-15.541-2.495-21.051-4.171-5.105-12.923-6.116-16.246.518-.435.868.863 1.636 1.3.765 1.69-3.378 5.684-4.742 9.203-3.618 3.87 1.237 6.37 5.11 7.334 8.891 1.02 4.009.759 8.677-.163 12.686-.483 2.099-1.294 3.893-3.125 5.135-1.14.771-2.005 1.214-2.629 2.491-.602 1.234-.774 2.628-1.432 3.852-1.015 1.887-2.697 3.592-4.754 4.283-1.77.596-3.677.414-5.294-.546-2.346-1.392-2.623-3.254-2.783-5.748-.176-2.748-1.906-3.321-4.184-4.145-5.392-1.947-4.107-7.726-2.206-11.85.255-.553-.057-1.077-.649-1.14-4.533-.49-4.978-5.967-2.186-8.691 2.765-2.699 6.936-2.207 10.136-.685.871.414 1.635-.892.76-1.308"/>
        <path fill="#000" d="M442 293.73l.96 31.533c.027.853 1.45 1.025 1.742.2.34-.957.32-.816.27-1.815-.048-.97-1.822-.975-1.773 0l-.207 1.414 1.742.2-.96-31.532c-.03-.971-1.803-.975-1.774 0"/>
        <path fill="#000" d="M438.055 291.909a76.813 76.813 0 0 0 3.532 7.712c.455.862 1.774.1 1.319-.762a73.184 73.184 0 0 1-3.377-7.352c-.354-.896-1.83-.506-1.474.402M443.822 302.987c.774-.147 1.497-.688 2.01-1.473.548-.841-.37-2.076-.923-1.23-.384.59-.855.916-1.433 1.025-.35.066-.54.658-.456 1.07.103.5.452.674.802.608M440.026 306.01a14.578 14.578 0 0 0 1.91 4.709c.516.821 1.424-.339.913-1.153-.744-1.186-1.262-2.534-1.578-3.99-.22-1.01-1.465-.581-1.245.433M563.158 281.727c.06 2.39 1.155 4.252 3.222 5.397l-.15-1.183c-3.006 2.554-4.53 6.498-4.18 10.461.317 3.599 2.443 7.815 6.172 8.728 1.425.348 1.718.588 2.444 1.893.382.688.65 1.26 1.272 1.79 1.473 1.248 3.443 1.426 5.237.931 3.92-1.08 7.52-4.884 6.71-9.193-.179-.95-1.607-.548-1.43.4.91 4.84-7.986 11.104-10.49 5.346-.358-.822-.268-1.661-1.099-2.208-.753-.495-1.741-.229-2.578-.49-3.33-1.037-4.866-5.308-4.806-8.511.059-3.166 1.411-6.055 3.797-8.082.364-.309.242-.965-.15-1.182-1.621-.898-2.442-2.24-2.49-4.097-.024-.967-1.506-.971-1.481 0"/>
        <path fill="#000" d="M564.237 288.585c-.572-3.46-4.804-5.857-7.995-3.858-1.42.89-2.259 2.56-2.366 4.185-.065.978.162 1.805.52 2.7.537 1.345.484 1.162-.47 2.453-2.34 3.17-2.727 9.323-.162 12.424 2.936 3.552 8.27 3.228 11.058-.293.607-.765-.482-1.853-1.096-1.079-2.617 3.305-7.837 3.174-9.565-.956-1.379-3.296-.217-7.461 1.858-10.087 1.616-2.044-.449-2.207-.604-4.563-.32-4.881 6.572-5.093 7.328-.52.16.967 1.653.557 1.494-.406"/>
        <path fill="#000" d="M558.134 307.55c-.793 4.931 1.985 9.76 6.887 10.69 2.137.406 4.65.008 6.374-1.443 2.047-1.722 1.805-4.385 2.578-6.77l-1.44-.202-.882 16.444c-.053.976 1.412.973 1.464 0l.884-16.444c.047-.89-1.186-.98-1.44-.2-.52 1.61-.403 3.73-1.332 5.172-1.104 1.716-3.47 2.206-5.31 2.045-4.33-.377-7.06-4.604-6.37-8.89.153-.955-1.259-1.366-1.413-.403M574.708 314.999c3.714-.202 7.817-.52 10.605-3.382 2.828-2.904 2.341-7.13 2.683-10.892.088-.97-1.384-.964-1.47 0-.302 3.31.223 7.251-2.253 9.82-2.474 2.567-6.275 2.76-9.565 2.938-.941.052-.947 1.568 0 1.516"/>
        <path fill="#000" d="M573.649 285.734l-.076 12.477-.036 5.989-.018 2.994-.01 1.497c-.247.979-.16 1.241.262.789l.651.558-.074-.224c-.3-.908-1.606-.515-1.302.405.024.074.05.149.073.223.107.32.335.553.652.558.66.009.874-.337 1.057-1.003.259-.941.039-2.319.045-3.302l.027-4.491.1-16.47c.006-.978-1.345-.98-1.351 0"/>
        <path fill="#000" d="M568.107 296.035c.902 1.444 2.414 3.343 4.213 3.882 1.8.54 3.372-1.705 4.456-2.69.689-.625-.368-1.605-1.056-.98-.973.882-2.187 2.652-3.645 1.938-1.146-.561-2.054-1.85-2.678-2.85-.482-.771-1.774-.074-1.29.7M571.232 288.341l2.436 2.43c.714.712 1.814-.4 1.1-1.112l-2.437-2.43c-.713-.712-1.814.4-1.1 1.112M574.434 293.807l3.3-2.587c.796-.624-.376-1.648-1.169-1.027l-3.3 2.588c-.795.623.378 1.647 1.17 1.026M328 194.758v3.484c0 1.01 1 1.011 1 0v-3.484c0-1.01-1-1.011-1 0M328 182.766v2.468c0 1.02 1 1.022 1 0v-2.468c0-1.02-1-1.022-1 0M328.032 171.98l.633 2.463c.252.978 1.555.561 1.303-.422l-.634-2.464c-.25-.978-1.555-.56-1.302.423M328.025 161.912c.28 1.115.43 2.234.453 3.38.018.942 1.54.946 1.522 0a16.771 16.771 0 0 0-.508-3.769c-.23-.916-1.699-.528-1.467.39M329.927 156.472c.298-1.794.26-4.214 1.51-5.663.607-.705 1.212-.914 1.463-1.912.382-1.506-.35-3.25-1.883-3.76-1.476-.49-3.248.386-3.816 1.814-.797 2.006.928 3.637 2.535 4.52.828.456 1.57-.803.742-1.259-.69-.38-1.779-.996-1.94-1.843-.156-.814.72-1.991 1.607-1.922 2.193.171 1.27 2.377.55 3.103-.227.228-.528.352-.748.598-1.24 1.386-1.146 4.184-1.438 5.937-.152.918 1.264 1.313 1.418.387"/>
        <path fill="#000" d="M324.435 145.671c1.55-2.193 4.215-3.38 6.937-3.184 1.29.093 2.318.582 3.44 1.153.74.377.811.525 1.63.416.327-.044.545-.418.553-.71l.005-.195a.732.732 0 0 0-.374-.635l-.2-.113c-.37-.208-.803-.068-1.031.264l-.076.11c-.543.788.762 1.526 1.3.743l.076-.11-1.03.264-.177-.327.552-.71c-.567.076-2.416-1.242-3.225-1.423a9.582 9.582 0 0 0-3.534-.094c-2.555.395-4.686 1.742-6.148 3.808-.552.781.753 1.518 1.302.743"/>
        <path fill="#000" d="M319.41 142.666c2.018-3.073 5.182-5.315 8.97-6.024 2-.373 4.07-.285 6.037.213.854.217 5.022 1.51 5.084 2.447l.55-.683.455.119.118.858.054-.09c.482-.792-.812-1.505-1.293-.715l-.055.09c-.157.256-.133.654.117.858.321.263.577.367 1.002.245.3-.086.57-.37.55-.682-.098-1.492-2.62-2.49-3.839-3.012a15.908 15.908 0 0 0-7.483-1.241c-4.833.388-9.03 3.047-11.56 6.902-.51.777.785 1.49 1.293.715"/>
        <path fill="#000" d="M315.373 140.64c2.605-4.765 7.469-7.843 12.864-8.904 6.688-1.316 11.317 2.197 15.52 6.809.633.695 1.678-.326 1.048-1.017-4.357-4.782-9.337-8.474-16.238-7.313-6.024 1.014-11.575 4.396-14.474 9.7-.446.817.832 1.545 1.28.726M582.534 284.173c1.281-.01 2.15-.468 3.202-1.177.514-.348 1.046-.854 1.623-1.1 3.103-1.324 4.905 2.697 1.891 4.09-.56.26-.422 1.02 0 1.313 1.618 1.123 3.592.076 5.253 1.364 2.062 1.6.484 4.5-1.383 5.31-.712.31-1.464.502-2.117.938-1.529 1.018-1.588 2.954-3.298 3.84-1.66.86-3.718 1.138-5.102-.273-2.006-2.047-.468-5.154 2.325-5.318.793-.046.98-.97.383-1.416-1.114-.833-2.036-1.755-2.767-2.95-.608-.995-2.335-4.436.434-4.736.96-.104.971-1.626 0-1.52-2.16.234-3.23 1.981-2.928 4.103.376 2.644 2.454 4.89 4.496 6.415l.382-1.416c-3.144.184-5.85 3.167-4.527 6.379 1.564 3.798 6.494 3.637 9.341 1.362.556-.444.775-.86 1.126-1.475.453-.794.73-1.547 1.606-2.042.505-.285 1.1-.41 1.621-.663 1.433-.7 2.444-1.767 2.798-3.358a4.494 4.494 0 0 0-1.316-4.255 4.863 4.863 0 0 0-2.182-1.169c-1.093-.255-2.383.258-3.378-.433v1.313c2.507-1.16 3.367-4.502 1.095-6.393-3.34-2.78-5.426 1.723-8.578 1.747-.977.007-.979 1.528 0 1.52"/>
        <path fill="#000" d="M564.464 281.044c.288-2.178 1.124-4.13 2.677-5.686.665-.667 1.525-1.406 2.425-1.74 2.806-1.04 4.04.64 3.69 3.04-.115.785.965 1.45 1.38.594 1.168-2.41 6.615-9.232 9.207-5.345 2.02 3.028-.345 7.004 1.705 9.767.579.78 1.892.014 1.304-.778-1.052-1.417-.43-3.029-.436-4.607a11.324 11.324 0 0 0-.552-3.457c-.462-1.406-1.207-3.293-2.723-3.735-1.759-.512-4.221 1.122-5.544 2.113-1.855 1.387-3.25 3.17-4.265 5.265l1.38.593c.447-3.056-1.317-6.173-4.666-5.268-3.86 1.043-6.526 4.964-7.038 8.834-.128.97 1.327 1.39 1.456.41M25.492 295.728a406.054 406.054 0 0 1-.708 14.375 393.94 393.94 0 0 1-.841 10.389c-.084.886.052 3.662-.686 4.26-.754.612.318 1.673 1.066 1.067 1.267-1.027.938-3.358 1.08-4.833A389.23 389.23 0 0 0 27 295.728c.03-.971-1.477-.97-1.508 0"/>
        <path fill="#000" d="M22.226 310.327c1.224 1.227 2.165 2.645 2.864 4.295.213.505.8.447 1.123.16a19.03 19.03 0 0 0 2.612-2.843c.582-.776-.425-1.897-1.011-1.114a19.033 19.033 0 0 1-2.613 2.843l1.124.16a14.469 14.469 0 0 0-3.087-4.615c-.68-.681-1.694.43-1.012 1.114M26.418 299.834a37.544 37.544 0 0 0 5.373-4.574c.679-.699-.454-1.728-1.137-1.024a37.544 37.544 0 0 1-5.374 4.574c-.816.572.33 1.59 1.138 1.024M21.342 303.478l3.587 2.4c.794.533 1.52-.825.73-1.355l-3.588-2.402c-.794-.531-1.52.826-.73 1.357"/>
        <path fill="#000" d="M24.745 316.765c-3.43-2.77-6.959-5.399-10.598-7.883l-.373 1.395c1.902-.003 4.266-.276 4.919-2.438.685-2.268-1.713-3.615-2.389-5.5l-.34.844c2.675-1.148 2.299-4.429.17-5.955-2.38-1.707-7.184-1.658-9.448.295-2.527 2.18-1.792 6.339-.522 9 1.577 3.306 4.667 5.464 8.331 5.415.952-.012.955-1.51 0-1.497-4.285.058-7.27-3.421-7.873-7.516-.41-2.796.903-4.952 3.802-5.266.746-.08 1.54-.075 2.283.002.478.085.955.17 1.432.253 2.029.489 2.388 1.815 1.077 3.978-.277.119-.44.564-.34.844.26.723.565 1.256 1.023 1.888.225.309.64.65.78 1 .687.629.403 1.225-.85 1.79-.377 1.135-1.062 1.59-2.055 1.366-.767.001-.964.991-.374 1.394a159.66 159.66 0 0 1 10.299 7.65c.737.595 1.791-.457 1.046-1.059"/>
        <path fill="#000" d="M12.07 295.608c-1.038-3.278-.675-6.754 1.07-9.737.747-1.278 2.067-3.077 3.476-3.714 2.6-1.176 3.874 2.372 4.64 4.306.31.783 1.4.672 1.472-.2.312-3.816 1.56-7.463 3.796-10.59.763-1.068 1.767-2.51 3.08-1.149.64.664.968 2.004 1.27 2.828.69 1.886 1.096 3.824 1.294 5.822.05.508.436.82.948.722 4.464-.853 5.78 4.075 3.955 7.25-.58 1.008-1.044 1.61-.655 2.797.685 2.09 1.963 3.45 2.08 5.782.13 2.593-.76 5.168-2.566 7.047-1.685 1.754-4.083 2.87-6.517 2.994-1.874.095-1.438-.093-2.782 1.215-4.13 4.018-9.895-.438-13.132-3.231-.727-.627-1.792.428-1.06 1.06 3.7 3.192 8.72 6.956 13.773 4.278.922-.488 1.565-1.471 2.48-1.814 1.08-.404 2.574-.193 3.738-.584 2.226-.748 4.24-2.193 5.6-4.112 1.557-2.196 2.192-4.956 1.902-7.619a11.075 11.075 0 0 0-.898-3.332c-.267-.595-.901-1.26-1.059-1.883-.315-1.245.33-1.61.793-2.516 2.25-4.404-.947-9.75-6.05-8.776.316.24.633.48.948.722-.233-2.362-1.65-12.393-5.693-11.051-2.054.682-3.766 4.199-4.599 5.942-1.24 2.595-1.91 5.342-2.145 8.199l1.472-.199c-.72-1.82-1.903-4.871-3.851-5.725-1.942-.851-4.02 1.102-5.246 2.414-3.307 3.537-4.435 8.657-2.98 13.252.29.916 1.737.525 1.445-.398"/>
        <path fill="#000" d="M38.443 293.847c.512-.841 2.818-3.577 4.13-1.421.567.933-.162 2.909-.446 3.807-.139.437.247.987.742.948 7.32-.58 2.018 14.423-4.323 8.035-.69-.696-1.778.365-1.089 1.06 3.058 3.08 7.936 1.779 9.791-1.882 1.763-3.478.476-9.097-4.38-8.711l.744.948c.55-1.736 1.404-5.454-.963-6.426-2.151-.884-4.559 1.281-5.536 2.886-.506.831.825 1.586 1.33.756"/>
        <path fill="#000" d="M25.55 315.63c6.57 1.18 13.493-.226 15.421-7.666.251-.967-1.22-1.38-1.47-.413-1.696 6.543-7.822 7.609-13.545 6.58-.96-.172-1.37 1.326-.405 1.5M701.66 312.51c-2.533.09-4.955-.707-6.773-2.484-1.88-1.84-3.998-7.617.643-7.543.53.008 1.01-.656.656-1.116-2.654-3.456-8.058-7.502-6.258-12.422 1.106-3.023 6.461-3.195 5.765-7.091-.397-2.22-1.348-3.936-1.026-6.298.292-2.148 1.23-4.207 2.78-5.774.77-.78 1.901-1.665 3.028-1.918 2.415-.544 3.96 1.326 4.728 3.333.98 2.561.795 5.358-.387 7.818-.174.365-.106.795.273 1.015 2.23 1.292 3.689 3.124 4.413 5.563.272.914 1.737.525 1.464-.395-.83-2.794-2.544-4.962-5.11-6.45.09.34.18.677.272 1.016 1.865-3.883 1.878-11.008-2.746-13.293-4.505-2.226-9.06 3.971-9.966 7.53-.645 2.535-.184 4.616.432 7.069.775 3.08-1.253 3.258-3.148 4.577-.79.55-1.468 1.214-1.912 2.067-2.935 5.617 3.056 10.454 6.087 14.401l.655-1.115c-3.852-.062-5.052 3.921-3.84 6.947 1.574 3.925 5.773 6.194 9.97 6.046.975-.034.98-1.517 0-1.483"/>
        <path fill="#000" d="M717.053 284.574c-2.601-1.399-6.562-2.855-8.549.36-2.008 3.248 2.061 4.81 3.375 7.093l.439-1.097c-2.209.605-4.057 1.96-5.216 3.985-.793 1.385-1.691 3.926-.587 5.376.723.95 1.945 1.592 2.758 2.511.755.855 1.465 1.745 2.42 2.378 1.784 1.182 3.733 1.08 5.394-.265.935-.756 1.529-1.806 2.377-2.638 1.155-1.135 2.538-1.098 3.786-1.929 1.733-1.154 2.45-3.558 2.677-5.524.514-4.438-1.682-10.844-6.656-11.53-.924-.127-1.324 1.312-.39 1.44 4.062.56 5.865 5.708 5.644 9.356-.055.899-.223 1.837-.53 2.689-.637 1.762-1.244 2.052-2.986 2.747-1.215.485-1.674.633-2.584 1.695-1.082 1.262-2.252 3.274-4.096 3.34-2.25.082-3.567-2.52-4.97-3.867-1.31-1.258-2.152-1.985-1.484-3.945.76-2.226 2.643-3.779 4.833-4.379.458-.126.678-.682.44-1.097-.69-1.2-1.84-1.727-2.637-2.77-.96-1.26-.883-3.432.893-3.964 1.68-.503 3.506.57 4.907 1.324.835.45 1.579-.84.742-1.29"/>
        <path fill="#000" d="M713.531 306.7c-.174 2.641-.768 5.598-2.925 7.38-2.537 2.093-6.649 1.472-9.685 1.043-.923-.131-1.322 1.27-.39 1.402 3.538.5 7.995 1.158 10.987-1.28 2.528-2.058 3.277-5.465 3.48-8.545.062-.935-1.406-.931-1.467 0"/>
        <path fill="#000" d="M700.101 313.708l.177 5.532c.026.815.641 4.983.094 5.513l.88-.115-.16-.088c-.82-.454-1.554.813-.733 1.267l.16.088a.74.74 0 0 0 .88-.115c1.023-.99.44-3.166.4-4.423l-.246-7.659c-.03-.942-1.482-.946-1.452 0M692.992 274.616c-.318-2.405-4.564-3.245-6.315-2.13-2.951 1.88-.11 6.361 1.31 8.308l.832-1.108c-5.728-.807-9.22 5.735-5.215 10.142l.15-1.185c-2.716 1.5-5.615 4.261-4.515 7.779 1.104 3.526 5.105 3.82 8.12 3.462.93-.11.94-1.621 0-1.51-2.43.29-5.315.444-6.434-2.228-1.224-2.92 1.317-4.954 3.571-6.2.432-.238.462-.841.15-1.185-2.907-3.196-.538-8.228 3.781-7.62.544.077 1.268-.51.832-1.108-.725-.995-1.64-2.217-1.94-3.437-.606-2.485 3.928-4.03 4.252-1.579.127.958 1.547.55 1.421-.401"/>
        <path fill="#000" d="M685.105 299.723l.015 9.77c.004 2.214-.611 5.421.904 7.294.984 1.216 2.64 1.574 4.116 1.802 3.016.465 6.092.494 9.13.292.97-.064.977-1.56 0-1.496-2.11.14-4.219.164-6.33.01-3.1-.227-5.773-.273-6.296-3.992-.307-2.178-.008-4.647-.012-6.84l-.01-6.84c-.002-.963-1.519-.965-1.517 0M702.72 313.996c4.917-.453 10.048-5.267 9.184-10.454-.158-.95-1.607-.547-1.449.398.69 4.143-3.877 8.202-7.735 8.557-.955.089-.965 1.588 0 1.5M700.795 287.733A787.642 787.642 0 0 1 700 313.27c-.046.975 1.16.972 1.205 0a787.64 787.64 0 0 0 .794-25.537c.014-.977-1.19-.977-1.205 0"/>
        <path fill="#000" d="M696.106 290.155l3.559 6.474c.47.856 1.702.076 1.229-.784l-3.559-6.474c-.47-.856-1.702-.076-1.229.784M702.07 303.907a17.636 17.636 0 0 0 3.711-2.702c.666-.63-.34-1.635-1.005-1.005a16.18 16.18 0 0 1-3.424 2.479c-.804.437-.087 1.666.718 1.228M699.34 306.128l1.623.79c.778.38 1.476-.666.697-1.046l-1.623-.79c-.778-.38-1.475.667-.697 1.046M733.473 297.323c-.6-3.201-1.255-6.648.018-9.774 1.19-2.923 3.997-4.765 7.167-3.77 1.451.456 2.162 1.358 3.109 2.414.398.444.705.82 1.295.991.796.232 1.471-.087 2.207-.345 1.357-.476 2.647-.867 4.108-.83 6.655.169 8.067 9.411 6.554 14.47-1.943 6.497-9.197 9.425-15.232 6.629l.152 1.18c3.25-3.768 2.498-9.789-2.232-11.945-2.415-1.1-4.74-.76-7.054.338-.6.369-1.23.68-1.89.932-.634.031-1.27.048-1.904.05-.562.075-.96.058-1.509.35-.94.503-1.58 1.49-1.934 2.46-1.286 3.514 1.558 5.493 2.568 8.548.82 2.483 1.546 4.429 4.161 5.496 4.995 2.04 9.562-2.732 8.417-7.693-.218-.942-1.664-.543-1.446.4 1.14 4.94-4.91 8.539-8.392 4.51-1.177-1.363-1.15-3.282-1.977-4.834-.361-.677-.896-1.241-1.272-1.904-1.19-2.1-1.327-3.304.543-4.8 1.411-1.13 1.373-.815 2.772-1.072.727-.134 1.284-.448 1.942-.76 1.816-.862 3.268-1.584 5.327-1.025 4.432 1.201 5.743 6.496 2.82 9.886-.287.332-.319.963.15 1.18 6.234 2.89 13.68.661 16.727-5.682 2.411-5.017 1.775-14.532-3.784-17.364-1.309-.667-2.781-.91-4.24-.843-.68.03-1.363.144-2.024.3-.705.17-1.69.828-2.379.83-1.526.002-2.975-2.393-4.386-3.014a7.45 7.45 0 0 0-3.605-.607c-7.773.656-7.246 10.242-6.224 15.698.179.95 1.624.548 1.447-.4"/>
        <path fill="#000" d="M745.723 297.708a236.266 236.266 0 0 0-.547 27.58c.036.947 1.31.952 1.273 0a236.266 236.266 0 0 1 .548-27.58c.074-.947-1.2-.941-1.274 0"/>
        <path fill="#000" d="M748.383 304.692l3.478-4.657c.555-.743-.695-1.462-1.245-.727l-3.477 4.657c-.555.743.695 1.463 1.244.727M739.326 313.542c2.235 1.729 4 5.806 7.299 4.011.85-.462.104-1.857-.745-1.395-2.248 1.224-4.26-2.812-5.81-4.011-.776-.601-1.515.799-.744 1.395"/>
        <path fill="#000" d="M747.517 316.791c2.008.646 4.057-.266 5.26-1.906 1.523-2.076 1.293-4.787 1.037-7.187-.099-.926-1.594-.936-1.494 0 .173 1.621.407 3.387-.1 4.972-.575 1.798-2.276 3.364-4.305 2.712-.916-.294-1.308 1.116-.398 1.41"/>
        <g transform="translate(754 291)">
            <mask id="b" fill="#fff">
                <use xlink:href="#a"/>
            </mask>
            <path fill="#000" d="M.343 15.92c4.297 4.638 11.206-1.41 7.013-6.168L6.447 10.9C11.234 13.34 12.495 4.763 11.073 2 9.76-.548 2.658.304 4.705 2.481c.652.696 1.71-.339 1.06-1.03-.154.472-.018.644.406.512.379-.007.758-.016 1.136-.024 1.33.102 2.553.532 2.697 1.964.122 1.212.05 7.188-2.8 5.736-.771-.394-1.461.518-.909 1.145 2.89 3.28-1.908 7.324-4.892 4.103-.647-.7-1.705.336-1.06 1.032" mask="url(#b)"/>
        </g>
        <path fill="#000" d="M744.124 294.492a9.367 9.367 0 0 0 2.296 2.31c.434.306.95.257 1.278-.144l2.152-2.628c.611-.746-.8-1.458-1.405-.718l-2.152 2.627 1.278-.145c-.818-.578-1.493-1.235-2.042-2.022-.544-.781-1.953-.066-1.405.72"/>
        <path fill="#4A69FF" d="M719.719 326.55l33.562.45c.958.013.959-1.537 0-1.55L719.72 325c-.958-.013-.96 1.537 0 1.55M680.73 326.55l24.54.45c.974.018.974-1.532 0-1.55l-24.54-.45c-.974-.018-.974 1.532 0 1.55"/>
        <g transform="translate(0 325)">
            <mask id="d" fill="#fff">
                <use xlink:href="#c"/>
            </mask>
            <path fill="#4A69FF" d="M.714 1.344l33.356.348c.953.01.953-1.19 0-1.2L.714.144c-.952-.01-.953 1.19 0 1.2" mask="url(#d)"/>
        </g>
        <path fill="#AAA" d="M173.494 76.214c-.002-2.681.826-5.516 3.083-7.117 2.184-1.55 5.118-1.363 7.018.533.313.313.737.262 1.056 0 1.095-.898 2.603-2.266 3.984-2.642 2.438-.662 3.658.999 4.314 3.108.123.395.516.65.919.537 1.761-.501 3.824-1.095 5.36.353 1.31 1.234 1.896 3.373 2.307 5.074l.72-.972c-9.723.393-19.452.478-29.181.254-.962-.023-.961 1.513 0 1.536 9.729.224 19.458.14 29.181-.254a.775.775 0 0 0 .721-.973c-.531-2.2-1.448-5.058-3.41-6.366-1.848-1.232-4.126-.694-6.095-.134l.919.537c-.585-1.882-1.436-4.141-3.544-4.604-2.61-.574-5.382 1.925-7.251 3.459h1.056a6.889 6.889 0 0 0-8.257-1.13c-3.08 1.73-4.396 5.358-4.394 8.801 0 .99 1.495.99 1.494 0M584.2 125.588c4.085 4.62 11.01 4.42 15.228.178 1.057-1.064 2.046-1.271 3.376-.517.627.355 1.117 1.01 1.774 1.376 1.31.731 2.855 1.043 4.338.933 1.549-.115 2.898-.71 4.13-1.659.754-.58 1.392-1.333 2.19-1.853 1.861-1.215 3.81-.455 5.628.363.865.39 1.621-.918.749-1.31-3.27-1.471-5.58-1.662-8.382.652-2.07 1.709-4.072 2.88-6.823 2.018-1.69-.53-2.472-2.182-3.991-2.83-2.621-1.117-4.619 2.784-6.644 3.747-3.562 1.693-7.905.792-10.525-2.171-.642-.726-1.688.35-1.048 1.073M548.445 101.904c.356-2.148.736-4.848 2.843-6.075 1.524-.888 2.811.284 4.25-.11 1.299-.357 2.31-2.322 3.305-3.18 1.538-1.326 3.704-2.684 5.767-3.004 2.733-.424 4.448 1.462 6.004 3.31.732.87 1.227 1.57 2.46 1.683 2.33.215 5.168-2.245 6.54 1.17.84 2.086.998 4.363.85 6.577l.743-.726a764.71 764.71 0 0 1-33.39-1.343c-.956-.059-.952 1.392 0 1.45a764.707 764.707 0 0 0 33.39 1.344c.421.007.718-.34.743-.725.206-3.09-.039-9.822-4.465-10.022-1.134-.05-2.169.607-3.252.615-2.123.017-2.76-1.466-4.067-2.71-1.378-1.31-3.048-2.247-5.023-2.151-2.091.1-4.307 1.277-5.974 2.435-1.714 1.19-3.041 3.64-5.123 3.581-1.778-.05-3.085-.01-4.491 1.298-1.734 1.612-2.177 3.988-2.544 6.197-.15.913 1.28 1.306 1.434.386M322.042 17.928c.265.766.33 1.521.218 2.318-.057.404.428.754.843.754.502 0 .786-.348.843-.754a5.82 5.82 0 0 0-.278-2.72c-.32-.924-1.948-.53-1.626.402M318.987 26.992l4.444-.57c.998-.127.573-1.54-.418-1.414l-4.443.57c-.998.127-.574 1.541.417 1.414M328.646 26.961c.97.105 1.93-.003 2.874-.297.841-.262.485-1.898-.358-1.636a6.122 6.122 0 0 1-2.516.237c-.864-.094-.859 1.603 0 1.696M323.003 29.663l.334 3.674c.08.88 1.74.888 1.66 0l-.334-3.674c-.08-.88-1.74-.888-1.66 0M399.193 56.93a32.482 32.482 0 0 1 3.387-5.8h-1.28l1.909 4.437c.315.732.587 1.809 1.336 2.254.466.276.939.186 1.44.165 2.173-.093 3.939-.883 6.091-.012l-.326-1.261c-1.203 1.546-2.408 3.09-3.61 4.638-.643.829-1.478 1.696-1.69 2.767-.24 1.21.259 2.486.563 3.63l1.523 5.723 1.088-.852c-1.83-.857-3.487-1.89-4.976-3.286-.786-.737-1.561-1.927-2.735-2.03-.762-.066-1.316.367-1.907.796-1.825 1.328-3.528 2.896-5.272 4.329l1.265.533-.054-5.966c-.013-1.356.367-3.374-.091-4.678-.19-.537-.455-.757-.964-.988-.544-.247-1.344-.138-1.925-.29-1.455-.38-2.646-1.19-3.705-2.25l-.327 1.262c3.075-.79 6.151-1.578 9.226-2.367.925-.238.533-1.693-.394-1.455l-9.227 2.366c-.54.14-.719.87-.326 1.261.86.861 1.767 1.576 2.87 2.09.718.334 2.792.408 3.297.871.5.458.08 3.877.088 4.637l.05 5.507c.006.705.783.93 1.265.534l3.012-2.474c.43-.352.999-1.032 1.507-1.236 1.366-.548 2.336-.289 3.299.615 1.565 1.471 3.344 2.617 5.277 3.522.564.264 1.27-.173 1.088-.852-.618-2.326-1.758-4.982-1.955-7.376-.23-2.792 3.151-5.81 4.788-7.915.365-.47.223-1.038-.327-1.26-2.002-.81-3.596-.212-5.637-.178-1.85.032-2.039-.823-2.692-2.343l-1.562-3.63c-.247-.577-.99-.397-1.28 0a32.422 32.422 0 0 0-3.387 5.801c-.398.877.88 1.644 1.28.762M542.402 36.726c-.132 1.516-.265 3.033-.399 4.548-.085.97 1.51.965 1.595 0l.399-4.548c.085-.97-1.51-.965-1.595 0M536.729 43.686l4.542.312c.974.066.97-1.618 0-1.684l-4.542-.312c-.974-.067-.97 1.618 0 1.684M548.766 42.889a14.433 14.433 0 0 1 3.477.102c1.014.153 1.005-1.677 0-1.828a14.433 14.433 0 0 0-3.477-.103c-1.017.093-1.026 1.922 0 1.829M542.52 46.512a7.97 7.97 0 0 0-.466 3.762c.112.962 1.593.974 1.48 0a6.978 6.978 0 0 1 .413-3.357c.345-.914-1.085-1.31-1.428-.405M356.197 97.95c.995 1.136 1.99 2.272 2.983 3.408.558.638 1.627-.195 1.166-.917-.818-1.279-1.802-2.742-2.21-4.22-.515-1.867.469-2.499 1.753-3.666 2.11-1.917 4.477-3.97 7.01-5.296 1.112-.582 1.058-.595 2.021.17.472.372.872.982 1.273 1.435l3.181 3.59 6.364 7.178v-1.07c-4.815 4.72-6.285-4.867-10.456-4.762-1.287.033-2.459 1.351-3.396 2.093l-6.148 4.864c-.754.597.304 1.66 1.05 1.07 2.05-1.62 4.092-3.252 6.148-4.864.62-.499 1.25-.986 1.887-1.463 1.024.125 1.857.564 2.497 1.318.862.714 1.612 1.665 2.33 2.522.912 1.088 1.7 2.366 3.254 2.44 1.553.076 2.853-1.137 3.884-2.148.3-.293.265-.77 0-1.07l-9.545-10.769c-.734-.827-1.703-2.567-2.871-2.773-1.108-.195-2.483 1.082-3.303 1.623a51.747 51.747 0 0 0-4.283 3.163c-1.307 1.07-3.147 2.337-4.101 3.783-1.441 2.185 1.242 5.836 2.38 7.616l1.165-.917-2.983-3.408c-.637-.728-1.685.345-1.05 1.07"/>
        <path fill="#AAA" d="M355.11 112.84a18.626 18.626 0 0 0 2.995 3.8c.572.56 1.676-.207 1.155-.888-.594-.776-2.509-2.586-2.4-3.577.09-.806 2.494-2.602 3.09-3.187a91.247 91.247 0 0 1 3.24-3.031c.854-.761 2.284-2.49 3.387-2.87 1.696-.586 3.11 1.734 4.1 2.76l2.903 3.01c1 1.037 2.46 2.126 3.226 3.344.962 1.53-.484 2.392-1.525 3.553h1.039l-9.598-7.826c-.32-.26-.72-.289-1.039 0a75.184 75.184 0 0 0-6.543 6.721c-.612.713.423 1.754 1.04 1.037a75.117 75.117 0 0 1 6.542-6.722h-1.039l9.598 7.826c.294.24.753.318 1.039 0 .805-.899 2.528-2.168 2.67-3.465.156-1.42-1.602-2.633-2.436-3.498l-5.484-5.686c-.896-.929-2.246-3.144-3.684-3.141-1.29.003-2.673 1.716-3.558 2.466a90.343 90.343 0 0 0-5.547 5.111c-.883.884-2.821 2.205-3.028 3.547-.229 1.494 1.944 3.33 2.738 4.367l1.154-.888a17.284 17.284 0 0 1-2.767-3.503c-.485-.808-1.756-.072-1.269.74"/>
        <path fill="#AAA" d="M360.02 130.535c-1.867-.76-3.394-1.85-4.755-3.309l-.329 1.22c2.569-.908 4.518-2.55 6.526-4.312 2.613-2.294 5.222-4.593 7.834-6.888l-.904.113c2.774 1.758 5.461 3.635 8.023 5.68 1.333 1.062 2.023 1.675.844 3.165l-2.943 3.72h1.054c-1.958-1.681-3.905-3.375-5.874-5.045-.69-.586-1.302-1.29-2.267-1.283-1.255.01-2.568 1.247-3.511 1.951-1.833 1.369-3.452 2.932-4.929 4.66-.61.717.438 1.754 1.055 1.032.92-1.077 1.883-2.105 2.946-3.05.943-.84 2.649-2.658 3.955-2.922 1.38-.279 2.586 1.407 3.533 2.22l4.038 3.47c.273.234.795.327 1.054 0 1.366-1.727 3.219-3.497 4.282-5.412.42-.756.513-1.01-.018-1.73-1.024-1.389-3.09-2.557-4.477-3.593a94.919 94.919 0 0 0-6.012-4.122c-.288-.183-.664-.097-.904.114l-6.471 5.69c-2.219 1.952-4.368 4.123-7.23 5.135-.535.189-.725.794-.329 1.22 1.545 1.656 3.299 2.823 5.412 3.683.885.36 1.271-1.052.397-1.407M670.844 166.234c-1.119-2.977.676-6.036 3.453-7.265 2.933-1.297 6.209-.672 9.166.203.541.16 1.074-.38.916-.924-1.03-3.563 1.63-7.385 5.511-6.656 3.018.567 4.652 3.486 6.016 5.981.236.431.833.48 1.17.152 2.71-2.64 6.965-2.385 9.194.723 1.774 2.473 2.033 5.76 2.24 8.704l.744-.75c-12.974.23-25.95.05-38.912-.544-.958-.044-.956 1.458 0 1.501 12.963.594 25.938.775 38.912.544.381-.007.774-.34.744-.75-.274-3.92-.738-8.548-4.004-11.193-2.998-2.428-7.288-1.91-9.971.704.39.05.78.1 1.17.152-1.907-3.487-4.632-7.44-9.138-6.733-4.081.64-6.227 4.71-5.113 8.564l.917-.924c-3.784-1.118-8.358-1.78-11.74.777-2.5 1.889-3.849 5.106-2.71 8.134.336.894 1.777.506 1.435-.4M110.195 259.366l2.776 3.104 1.068-1.037c-1.165-.923-2.065-2.079-1.113-3.48.546-.8 1.727-1.51 2.464-2.155.703-.617 1.407-1.232 2.111-1.848.413-.362 1.586-1.69 2.11-1.848 1.268-.381 2.702 2.197 3.442 3.004a30.744 30.744 0 0 0 3.879 3.553c.47.363 2.13 1.262.218 1.996-.284.109-1.914-1.196-2.31-1.443-1.199-.75-2.712-2.098-4.141-2.388-.979-.2-1.46.147-2.212.68-1.733 1.224-3.29 2.873-4.882 4.263-.725.632.347 1.667 1.069 1.037l3.487-3.045c.905-.79 1.406-1.628 2.836-1.206.508.15 1.091.682 1.54.963 1.309.817 3.7 3.188 5.428 2.718 1.044-.284 2.305-1.808 1.984-2.847-.206-.67-.915-.999-1.45-1.394a30.923 30.923 0 0 1-3.54-3.046 30.87 30.87 0 0 1-3.008-3.545c-.337-.457-.638-1.128-1.227-1.333-1.33-.462-2.797 1.535-3.588 2.227l-3.52 3.08c-.837.734-2.37 1.637-2.771 2.696-.614 1.614.96 3.475 2.126 4.398.749.592 1.715-.315 1.068-1.037l-2.775-3.105c-.639-.714-1.704.327-1.069 1.038"/>
        <path fill="#AAA" d="M109.56 272.125l5.752-5.405 2.877-2.703 1.438-1.35c.826.086 1.506.426 2.039 1.018 2.013 1.375 3.825 3.248 5.631 4.87 1.074.962 2.496 1.463 1.57 2.936-.156.25-1.527 1.984-1.722 1.994-.212.01-1.656-1.631-1.92-1.865a34.71 34.71 0 0 0-2.246-1.83c-.975-.73-2.151-1.87-3.494-1.463-1.588.482-3.08 2.726-4.297 3.787-1.078.94-2.23 2.39-3.92 1.953-1.061-.274-2.195-1.525-2.958-2.216-.715-.647-1.79.395-1.073 1.045 1.185 1.074 3.533 3.446 5.315 3.063 1.14-.246 2.19-1.503 3.019-2.206.695-.59 1.379-1.194 2.048-1.813.414-.382 1.448-1.693 1.967-1.896 1.58-.62 3.887 2.002 4.897 2.923.596.545 1.364 1.708 2.185 1.974 1.555.502 3.274-2.135 3.913-3.142.987-1.553.083-2.208-1.175-3.354-2.571-2.34-5.192-5.052-8.103-6.989-1.825-1.214-2.829.239-4.188 1.517l-8.628 8.107c-.704.662.37 1.706 1.074 1.045"/>
        <path fill="#AAA" d="M110.371 285.62a189.88 189.88 0 0 1 6.518-6.753c.426-.42 1.686-2.118 2.246-2.181 1.423-.162 4.596 3.293 5.574 4.094l5.006 4.1.152-1.161a16.519 16.519 0 0 0-4.044 4.01l1.026-.264c-1.955-1.461-3.899-2.939-5.867-4.384-.868-.638-1.471-1.205-2.573-.845-1.143.374-2.373 2.167-3.08 3.046-.26.322-1.313 2.228-1.647 2.303-.854.19-2.857-1.941-3.381-2.406-.716-.635-1.781.407-1.062 1.045 1.729 1.532 4.199 4.285 5.98 1.738.724-1.034 1.459-2.041 2.323-2.97 1.134-1.217 1.25-1.444 2.682-.635 2.069 1.168 3.966 2.963 5.868 4.384.341.255.818.03 1.027-.265a14.21 14.21 0 0 1 3.506-3.482c.356-.25.555-.83.151-1.16l-6.794-5.563c-1.044-.855-3.1-3.384-4.693-3.267-1.484.109-2.844 2.205-3.78 3.133a203.83 203.83 0 0 0-6.2 6.439c-.648.702.41 1.75 1.062 1.044"/>
    </g>
</svg>
