<svg xmlns="http://www.w3.org/2000/svg" xmlns:xlink="http://www.w3.org/1999/xlink" width="186" height="226" viewBox="0 0 186 226">
    <defs>
        <path id="a" d="M.153.033h49.703v55.921H.153z"/>
        <path id="c" d="M.22.283h2.536V45.76H.22z"/>
    </defs>
    <g fill="none" fill-rule="evenodd">
        <g transform="translate(4)">
            <mask id="b" fill="#fff">
                <use xlink:href="#a"/>
            </mask>
            <path fill="#000" d="M13.137 51.332C3.64 38.893-8.465 8.388 13.902 1.987c8.73-2.498 18.33.759 24.805 6.953 6.705 6.415 9.937 15.868 10.032 25.092.054 5.16-.652 10.773-3.471 15.187-2.898 4.54-8.924 7.392-13.882 4.44-.609-.362-1.16.6-.552.961 3.72 2.214 8.334 1.517 11.777-.947 3.942-2.82 5.862-7.71 6.662-12.378 1.71-9.979-.327-20.953-6.317-29.153C37.301 4.4 27.79-.634 18.205.104 13.527.464 8.8 2.2 5.377 5.54 1.945 8.887.424 13.586.194 18.326c-.583 12.004 5.08 24.507 12.169 33.793.431.565 1.2-.228.774-.787" mask="url(#b)"/>
        </g>
        <path fill="#000" d="M17.25 52.664c1.31 3.434.526 6.876-1.907 9.572-1.775 1.966-3.959 3.562-5.098 6.026-2.42 5.23-.008 11.324.916 16.618.656 3.761.977 7.658.364 11.45-.55 3.403-1.869 6.61-3.373 9.69-2.102 4.302-4.7 8.475-6.169 13.06-1.782 5.56-.989 11.21 1.155 16.553.26.65 1.322.365 1.058-.293-2.075-5.172-2.879-10.579-1.154-15.967 1.57-4.91 4.455-9.327 6.621-13.975 2.802-6.01 3.781-12.003 2.9-18.595-.78-5.826-4.302-13.538-.81-19.026 1.705-2.68 4.64-4.343 6.14-7.183 1.35-2.557 1.437-5.544.415-8.223-.25-.655-1.311-.37-1.058.293"/>
        <path fill="#000" d="M7.95 76.39c-1.038 3.538-2.076 7.078-3.255 10.568-1.1 3.255-2.517 6.38-3.602 9.638-2.21 6.64-.656 13.45 1.029 20.009.178.693 1.203.399 1.024-.297-1.78-6.925-3.179-13.697-.603-20.615 2.343-6.293 4.534-12.54 6.43-19.006.203-.689-.822-.983-1.023-.297M26.524 56.365c2.403-.294 4.93-.607 7.308.014 2.727.712 4.314 2.753 5.841 4.96 3.117 4.5 6.21 9.017 9.314 13.526 2.522 3.663 5.026 7.467 8.6 10.207 1.785 1.37 3.755 2.457 5.747 3.492 1.093.568 2.195 1.118 3.28 1.698.543.29 1.082.583 1.614.892.304.177 2.373 1.018 2.276.852-.355-.612-1.308-.06-.952.555l.097.166c.093.16.286.284.476.272 1.277-.074.98-1.232.23-1.834-2.024-1.621-4.726-2.631-7.009-3.835-2.708-1.427-5.28-3.016-7.431-5.216-2.129-2.175-3.843-4.706-5.563-7.203-3.607-5.238-7.023-10.693-10.885-15.747-3.322-4.348-7.853-4.522-12.943-3.899-.695.085-.703 1.186 0 1.1M29.25 75.035c6.709 4.364 12.603 9.532 18.313 15.146 2.388 2.346 4.922 4.314 8.127 5.332 3.757 1.193 7.776 1.714 11.635 2.475.678.134.968-.922.286-1.057-3.667-.723-7.438-1.26-11.036-2.295-3.907-1.124-6.679-3.647-9.503-6.484A105.697 105.697 0 0 0 29.795 74.09c-.586-.382-1.128.567-.545.946"/>
        <path fill="#000" d="M71.139 93.33c.87-.152 1.587-.529 2.393-.87 1.726-.73 2.932-.112 3.927 1.376 1.275 1.905 2.318 4.029 3.424 6.039 2.222 4.037 4.427 9.024 1.952 13.485-.388.7-1.273 2.033-2.113 2.28-1.547.455-2.477-2.306-2.947-3.328-.959-2.087-1.784-4.22-2.952-6.203-2.069-3.514-4.826-6.51-8.051-8.955-.554-.42-1.09.526-.543.941 2.6 1.971 4.886 4.335 6.717 7.058 1.627 2.418 2.687 5.07 3.901 7.71.686 1.49 1.725 4.81 3.86 4.016 1.737-.646 3.005-2.567 3.634-4.23 1.955-5.168-.827-10.3-3.304-14.71-1.143-2.035-2.206-5.026-4.213-6.39-2.116-1.437-3.857.36-5.971.729-.68.119-.392 1.17.286 1.052"/>
        <path fill="#000" d="M70.587 102.408a73.405 73.405 0 0 0-1.276 7.097c-.213 1.663-.61 3.626.067 5.24 1.488 3.556 5.76 2.16 8.332.844.66-.338.077-1.32-.584-.983-1.423.73-3.087 1.61-4.752 1.24-1.957-.438-2.265-2.288-2.164-3.971.185-3.075.804-6.165 1.492-9.164.163-.714-.951-1.019-1.115-.303M80.095 94.886c1.415-2.64 6.036-2.107 5.696 1.288-.161 1.61-1.411 2.028-2.845 2.107-.718.039-1.296.156-1.774.71-.487.565.346 1.386.838.816.566-.656 1.966-.313 2.76-.606a3.477 3.477 0 0 0 1.557-1.175c.939-1.259.861-3.01-.02-4.276-1.837-2.643-5.781-2.158-7.234.553-.353.658.669 1.244 1.022.583"/>
        <path fill="#000" d="M86.7 98.987l13.897-2.87c.705-.146.407-1.25-.297-1.104l-13.898 2.87c-.704.146-.406 1.25.298 1.104M84.398 104.413c8.446 1.112 16.976.645 25.214-1.413.68-.17.391-1.15-.292-.98a66.01 66.01 0 0 1-24.63 1.413c-.692-.091-.99.888-.292.98"/>
        <path fill="#000" d="M100.918 95.84a76.672 76.672 0 0 0 16.032-23.993c.273-.645-.65-1.21-.926-.558-3.772 8.908-9.138 16.958-15.864 23.769-.493.5.265 1.28.758.782"/>
        <path fill="#4A69FF" d="M125.466 65c-2.615.102-5.907.453-8.054 2.24-2.072 1.726-1.504 4.198-.566 6.451.29.696 1.244.093.955-.6-.498-1.196-1.107-2.697-.492-3.988.463-.976 1.615-1.516 2.51-1.86 1.809-.692 3.737-.98 5.647-1.055.71-.027.714-1.215 0-1.188"/>
        <path fill="#4A69FF" d="M117.304 72.577c4.097 1.927 7.57-3.196 8.659-5.923.26-.654-.92-.935-1.178-.286-.803 2.011-3.668 6.785-6.864 5.281-.693-.325-1.311.601-.617.928M118.231 74.286c-3.712 6.776-5.736 14.215-7.333 21.71-1.35 6.333-3.488 13.713-.011 19.738.187.325.612.34.878.111 5.255-4.53 5.631-11.607 6.235-17.986.777-8.216 2.872-16.213 4.98-24.176.18-.685-.897-.978-1.078-.292-1.897 7.168-3.789 14.361-4.72 21.725-.868 6.869-.426 14.968-6.208 19.951l.878.112c-3.494-6.054-.987-13.857.405-20.19 1.53-6.96 3.49-13.849 6.94-20.147.34-.624-.624-1.18-.966-.556"/>
        <path fill="#000" d="M131.472 10.002c-10.76.87-18.61 9.15-23.019 18.469-4.271 9.025-7.375 21.302-.06 29.695 3.454 3.963 9.111 5.82 14.123 4.012l-.676-.386c.356.925.084 1.65-.817 2.177-.613.354-.06 1.308.556.953 1.262-.728 1.78-2.022 1.321-3.423-.087-.267-.385-.49-.677-.386-6.124 2.209-12.419-1.394-15.192-6.97-2.875-5.779-2.178-12.475-.272-18.433 3.653-11.424 11.709-23.553 24.713-24.604.7-.057.707-1.16 0-1.104M133.529 11.088c5.753.225 11.995 1.132 15.966 5.723 3.693 4.269 4.619 10.307 4.317 15.754-.338 6.12-2.209 12.46-5.733 17.536-1.766 2.543-4.048 4.6-6.925 5.815-2.775 1.172-5.794 1.602-8.758 2.029-.694.1-.399 1.148.291 1.048 4.95-.713 9.925-1.637 13.673-5.193 3.553-3.371 5.745-8.141 7.097-12.766 2.478-8.478 2.658-20.186-4.687-26.485-4.193-3.595-9.908-4.34-15.241-4.548-.705-.028-.704 1.06 0 1.087M131.694 66.309c4.856-1.14 10.906-2.444 15.127 1.033 3.828 3.154 5.285 8.795 7.086 13.164 1.997 4.845 4.712 9.862 5.684 15.03 1.055 5.616-.688 11.324-.921 16.938-.029.702 1.084.7 1.113 0 .256-6.152 2.18-12.349.601-18.468-.708-2.743-1.928-5.36-3.007-7.977l-3.728-9.042c-1.716-4.164-3.334-9.036-7.52-11.45-4.454-2.566-10.021-1.386-14.732-.28-.696.163-.401 1.216.297 1.052"/>
        <path fill="#000" d="M135.155 80.956a222.28 222.28 0 0 1 6.775 7.52c2.102 2.447 4.452 4.91 6.114 7.713 1.747 2.946 1.96 6.555 2.435 9.906l1.485 10.5c.1.709 1.129.408 1.03-.296-.53-3.733-1.057-7.467-1.585-11.2-.46-3.254-.75-6.617-2.444-9.474-1.602-2.7-3.826-5.065-5.841-7.425a221.14 221.14 0 0 0-7.214-8.034c-.483-.512-1.237.277-.755.79"/>
        <path fill="#000" d="M152.189 117.093c-1.166.769-2.334 1.545-3.641 2.06-1.283.505-2.652.56-3.946 1.005-1.576.54-2.855 1.745-3.42 3.314-.72 1.999.725 7.892 3.833 6.24.629-.335.07-1.283-.558-.948-1.031.548-2.111-1.704-2.298-2.33a4.181 4.181 0 0 1-.06-2.191c.42-1.685 1.777-2.77 3.422-3.206 1.188-.315 2.38-.424 3.526-.893 1.322-.54 2.514-1.32 3.7-2.103.591-.39.037-1.34-.558-.948"/>
        <path fill="#4A69FF" d="M147.297 127.023c-.731.194-1.44.3-2.2.322-.335.01-.53.236-.569.529l-1.524 11.622h1.138l.1-.869c.078-.675-1.06-.67-1.138 0l-.1.87c-.078.678 1.05.664 1.138 0l1.524-11.623-.569.528a10.724 10.724 0 0 0 2.503-.36c.702-.187.404-1.206-.303-1.02M149.64 130.02c-1.103-.163-1.625.71-1.854 1.78-.462 2.158-.53 4.5-.782 6.697-.077.674.918.668.995 0 .095-.83.52-7.584 1.376-7.458.626.091.897-.927.265-1.02"/>
        <path fill="#000" d="M149.531 128.043l.675.041-.517-.382c.44 1.164.272 2.42-.556 3.386-.44.512.316 1.253.758.737 1.062-1.239 1.409-2.872.832-4.4a.559.559 0 0 0-.517-.383l-.675-.04c-.689-.042-.686 1 0 1.041M159.887 114.81c2.233 3.373 4.049 7.241 3.978 11.334-.078 4.434-2.832 7.74-5.715 10.9-.483.528.315 1.31.8.779 2.943-3.226 5.739-6.604 6.023-11.09.283-4.473-1.67-8.797-4.11-12.478-.393-.594-1.373-.042-.976.556"/>
        <path fill="#4A69FF" d="M164.285 129.51c-.105 1.231-1.084 10.088 1.324 9.458.685-.18.395-1.206-.293-1.026.272-.072-.097-3.896-.1-4.174a44.08 44.08 0 0 1 .173-4.257c.059-.683-1.046-.68-1.104 0M162.006 134.5l.65 4c.108.662 1.447.67 1.338 0l-.65-4c-.108-.662-1.447-.67-1.338 0M128.523 139.862A3166.2 3166.2 0 0 0 182.477 141c.697.009.698-.853 0-.862A3166.2 3166.2 0 0 1 128.523 139c-.698-.02-.697.842 0 .862M121.36 139.105a17.02 17.02 0 0 0 5.143.895c.663.013.663-1.103 0-1.117a16.103 16.103 0 0 1-4.87-.855c-.634-.214-.906.864-.274 1.077M119.527 138.533c-.8 15.64-.689 31.308.33 46.935.047.707 1.188.712 1.142 0a404.119 404.119 0 0 1-.331-46.935c.036-.712-1.105-.71-1.141 0M121.532 186.927c20.988.238 41.98-.11 62.937-1.041.705-.032.71-.917 0-.885-20.957.932-41.95 1.28-62.937 1.042-.71-.008-.71.876 0 .884"/>
        <g transform="translate(183 141)">
            <mask id="d" fill="#fff">
                <use xlink:href="#c"/>
            </mask>
            <path fill="#4A69FF" d="M.435.807A362.6 362.6 0 0 0 1.629 45.24c.061.69 1.186.697 1.125 0A362.6 362.6 0 0 1 1.56.807C1.584.107.459.11.435.807" mask="url(#d)"/>
        </g>
        <path fill="#4A69FF" d="M121.535 139h20.93c.713 0 .714-2 0-2h-20.93c-.713 0-.714 2 0 2"/>
        <path fill="#4A69FF" d="M142.807 136.925l1.938-1.046c.593-.32.045-1.127-.552-.804l-1.938 1.045c-.593.32-.045 1.128.552.805"/>
        <path fill="#000" d="M143.28 133.068c-.968.547-1.43 1.566-1.237 2.602.106.578 1.04.333.934-.242-.116-.627.22-1.25.792-1.573.534-.302.047-1.09-.49-.787M111.558 116.397c-1.075 4.246-.468 8.52.723 12.68 1.308 4.57 3.026 9.045 4.584 13.54.234.674 1.338.385 1.102-.297-1.409-4.062-2.908-8.106-4.186-12.21-1.36-4.373-2.265-8.899-1.12-13.417.175-.696-.926-.992-1.103-.296"/>
        <path fill="#000" d="M116.015 142.391c-2.473 9.247-3.542 18.851-3.839 28.479-.15 4.88-.11 9.766.018 14.646.065 2.443.153 4.886.252 7.327.046 1.161.096 2.321.147 3.482.03.695.065 1.39.092 2.085.008.21.269 1.658.274 1.645l-.563.256.164.04c.624.152.892-.924.264-1.077l-.163-.04c-.197-.048-.47.027-.562.257-.272.678.021 1.7.84 1.478 1.394-.376.693-3.684.65-4.644-.258-5.927-.486-11.857-.51-17.791-.05-12.087.787-24.22 3.898-35.846.184-.69-.777-.985-.962-.297M149.875 187.526c-1.218 10.277-2.64 20.565-2.898 30.92l.56-.55-.705-.193c-.618-.37-1.182.584-.566.953.578.347.594.35 1.272.342a.565.565 0 0 0 .56-.551c.257-10.356 1.68-20.645 2.898-30.921.083-.704-1.038-.698-1.121 0"/>
        <path fill="#000" d="M137.198 204.904c-4.922-1.1-10.43-1.64-14.976 1.036-3.457 2.035-5.91 6.287-5.049 10.36.166.787.493 1.87 1.05 2.479.776.846 1.91.842 2.987 1.001 3.079.455 6.166.86 9.258 1.211 3.246.368 6.503.706 9.762.93 2.598.177 5.074.134 7.486-.937.639-.283.087-1.222-.548-.94-4.23 1.875-9.807.587-14.24.125a269.35 269.35 0 0 1-11.43-1.44c-1.53-.226-2.691-.628-3.163-2.247-1.141-3.918 1.54-8.13 4.948-9.884 4.236-2.182 9.152-1.642 13.626-.643.682.152.973-.898.289-1.051"/>
        <path fill="#000" d="M132 188.533c.102 5.33.43 10.644.982 15.941.073.697 1.088.705 1.014 0a188.09 188.09 0 0 1-.982-15.941c-.014-.71-1.028-.712-1.014 0M119.611 201.38c-4.662-1.246-9.885-1.852-14.673-.946-3.87.732-6.137 4.164-6.684 7.808-.327 2.179-.404 4.913.167 7.065.469 1.769 2.273 1.947 3.865 2.336a47.795 47.795 0 0 0 11.357 1.35c.733-.002 1.334.095 1.895-.376.146-.123.19-.35.142-.526-.077-.282-.175-.418-.443-.542-.233-.107-.473-.09-.666.085l-.091.082c-.522.471.256 1.233.776.764l.092-.083-.665.085c-.64-.294-.665-.475-1.383-.568-.443-.058-.925-.011-1.372-.027a45.72 45.72 0 0 1-8.683-1.128c-.784-.18-1.962-.28-2.652-.689-1.31-.776-1.248-2-1.343-3.32-.14-1.96-.143-3.97.421-5.873.481-1.624 1.396-3.155 2.765-4.201 1.59-1.215 3.57-1.364 5.516-1.473 3.842-.214 7.657.227 11.367 1.217.683.183.975-.859.292-1.04M129.71 186.706c.633 3.148-.463 6.47-.901 9.592a102.765 102.765 0 0 0-.808 8.159c-.043.725 1.083.723 1.127 0 .2-3.33.546-6.643 1.08-9.935.441-2.713 1.14-5.367.59-8.116-.144-.711-1.23-.41-1.087.3M2.943 135.678c1.154 4.775 2.086 9.533 2.042 14.488-.051 5.833-.638 11.722-1.187 17.521-1.179 12.458-2.071 24.932-2.497 37.447a571.422 571.422 0 0 0-.148 5.003c-.024.911-.407 2.642.138 3.446.579.855 1.589.283 1.344-.694-.055-.22-.271-.417-.492-.402a8.592 8.592 0 0 1-.138.01c-.652.046-.657 1.138 0 1.092l.138-.01a996.36 996.36 0 0 1-.491-.4c.454-.292.613-.71.478-1.255.01-.477.022-.953.033-1.43a573.09 573.09 0 0 1 .76-18.573c.394-6.899.911-13.79 1.553-20.668.62-6.646 1.333-13.334 1.51-20.015.143-5.435-.792-10.608-2.06-15.85-.164-.68-1.148-.392-.983.29M2.025 215.438c-.162 2.065.419 3.737 3.138 3.971 4.076.35 8.223.396 12.314.59.699.033.696-.877 0-.91l-8.12-.386c-1.26-.06-2.64.002-3.883-.185-1.446-.216-2.253-.547-2.391-1.866-.042-.403-.004-.812.028-1.214.046-.585-1.04-.583-1.086 0M10.016 132.688c.561 2.494 1.52 4.87 2.952 6.996 1.465 2.175 3.382 3.982 4.32 6.482.997 2.657 1.347 5.628 1.915 8.397.626 3.062 1.276 6.12 1.875 9.186.587 2.994 1.044 6.037.739 9.092-.31 3.096-1.326 6.066-1.99 9.092-1.244 5.673-.99 11.576-1.05 17.349l-.223 21.186c-.007.71 1.096.71 1.103 0l.196-18.673c.065-6.245-.345-12.755.897-18.907.58-2.873 1.511-5.667 1.974-8.565.416-2.601.33-5.197-.046-7.797-.888-6.134-2.284-12.316-3.675-18.356-.605-2.629-1.697-4.682-3.368-6.79-2.17-2.738-3.782-5.546-4.556-8.985-.156-.692-1.22-.399-1.063.293M19.033 223.55c.755 1.784 3.087 2.222 5.21 2.321 4.276.2 8.61.116 12.891.085a485.448 485.448 0 0 0 26.328-.918c.714-.044.72-.945 0-.9-7.544.465-15.102.763-22.667.876-3.66.055-7.321.068-10.982.039-1.85-.015-3.723.016-5.57-.082-1.55-.083-3.55-.293-4.129-1.66-.231-.546-1.314-.312-1.081.239M36.12 206.623c3.274-8.899 6.918-17.752 9.759-26.794 1.236-3.937 1.904-7.919 1.712-12.045-.191-4.108-1.035-8.154-1.853-12.174-.858-4.214-1.733-8.459-1.78-12.771-.051-4.616 1.385-8.658 2.622-13.038 1.216-4.306 1.758-8.765 2.073-13.214.242-3.428.48-6.865.259-10.3-.402-6.207-1.075-13.007-3.184-18.909-.239-.666-1.325-.38-1.084.294 1.912 5.35 2.536 11.414 3.022 17.028.648 7.47.063 15.49-1.647 22.781-.962 4.107-2.664 7.997-3.062 12.226-.37 3.94.13 7.896.83 11.774 1.51 8.378 3.913 16.651 1.827 25.156-1.213 4.949-3.23 9.72-4.989 14.499l-5.589 15.194c-.246.67.84.958 1.084.293M38.68 208.924a112.33 112.33 0 0 1 9.741-1.922c2.954-.444 6.859-1.421 9.833-.66 3.06.784 4.477 4.12 5.368 6.819.995 3.013 1.38 6.152 1.265 9.315-.025.7 1.068.698 1.093 0 .126-3.47-.343-6.93-1.512-10.21-.89-2.498-2.19-5.263-4.695-6.516-2.796-1.399-6.52-.484-9.461-.1a112.704 112.704 0 0 0-11.922 2.227c-.683.166-.394 1.213.29 1.047"/>
        <path fill="#000" d="M17.229 201.24c-.259.613-.52 1.226-.776 1.841-.22.526-.48 1.062-.45 1.656.038.816.689 1.441 1.43 1.217.523-.158.302-1.05-.223-.891-.78.236.063-1.735.137-1.91l.61-1.447c.226-.537-.5-1.007-.728-.467M112.39 40.9c4.616 1.262 9.46 1.436 14.204.534.711-.136.41-1.01-.301-.874-4.557.867-9.17.677-13.6-.533-.693-.19-.99.685-.303.873M124.917 29.214l-.84 1.133c-.362.49.643.929 1.007.439l.838-1.133c.363-.49-.642-.929-1.005-.439M115.893 26.227l-.802 1.06c-.4.529.618 1.012 1.016.486l.802-1.06c.399-.528-.618-1.012-1.016-.486M44.02 21.6l.382 1.053c.091.251.6.396 1.006.332.448-.072.662-.333.571-.585a815.88 815.88 0 0 1-.381-1.053c-.091-.25-.6-.396-1.006-.332-.448.072-.662.333-.571.585M45.274 36.888c2.246 1.105 4.804 1.394 7.323.833.706-.157.407-1.072-.302-.914-2.233.497-4.458.241-6.448-.738-.631-.31-1.204.509-.573.819"/>
        <path fill="#4A69FF" d="M126.929 140.537L126 187.463c-.014.716 1.057.716 1.071 0l.929-46.926c.014-.716-1.057-.716-1.071 0"/>
        <path fill="#000" d="M141.078 57.416a47.87 47.87 0 0 0-1.077 8.018c-.038.756.898.753.936 0a45.96 45.96 0 0 1 1.044-7.706c.162-.73-.74-1.042-.903-.312"/>
    </g>
</svg>
