<svg xmlns="http://www.w3.org/2000/svg" xmlns:xlink="http://www.w3.org/1999/xlink" width="92" height="55" viewBox="0 0 92 55">
    <defs>
        <path id="a" d="M0 .144h34.785v1.548H0z"/>
        <path id="c" d="M.142.435h11.481v17.147H.142z"/>
    </defs>
    <g fill="none" fill-rule="evenodd">
        <path fill="#000" d="M69.492 23.728a406.054 406.054 0 0 1-.708 14.375 393.94 393.94 0 0 1-.841 10.389c-.084.886.052 3.662-.686 4.26-.754.612.318 1.673 1.066 1.067 1.267-1.027.938-3.358 1.08-4.833A389.231 389.231 0 0 0 71 23.728c.03-.971-1.477-.97-1.508 0"/>
        <path fill="#000" d="M66.226 38.327c1.224 1.227 2.165 2.645 2.864 4.295.213.505.8.447 1.123.16a19.03 19.03 0 0 0 2.612-2.843c.582-.776-.425-1.897-1.011-1.114a19.033 19.033 0 0 1-2.613 2.843l1.124.16a14.469 14.469 0 0 0-3.087-4.615c-.68-.681-1.694.43-1.012 1.114M70.418 27.834a37.544 37.544 0 0 0 5.373-4.574c.679-.699-.454-1.728-1.137-1.024a37.544 37.544 0 0 1-5.374 4.574c-.816.572.33 1.59 1.138 1.024M65.342 31.478l3.587 2.4c.794.533 1.52-.825.73-1.355L66.07 30.12c-.794-.531-1.52.826-.73 1.357"/>
        <path fill="#000" d="M68.745 44.765c-3.43-2.77-6.959-5.399-10.598-7.883l-.373 1.395c1.902-.003 4.266-.276 4.919-2.438.685-2.268-1.713-3.615-2.389-5.5l-.34.844c2.675-1.148 2.299-4.429.17-5.955-2.38-1.707-7.184-1.658-9.448.295-2.527 2.18-1.792 6.339-.522 9 1.577 3.306 4.667 5.464 8.331 5.415.952-.012.955-1.51 0-1.497-4.285.058-7.27-3.421-7.873-7.516-.41-2.796.903-4.952 3.802-5.266.746-.08 1.54-.075 2.283.002.478.085.955.17 1.432.253 2.029.489 2.388 1.815 1.077 3.978-.277.119-.44.564-.34.844.26.723.565 1.256 1.023 1.888.225.309.64.65.78 1 .687.629.403 1.225-.85 1.79-.377 1.135-1.062 1.59-2.055 1.366-.767 0-.964.991-.374 1.394a159.66 159.66 0 0 1 10.299 7.65c.737.595 1.791-.457 1.046-1.059"/>
        <path fill="#000" d="M56.07 23.608c-1.038-3.278-.675-6.754 1.07-9.737.747-1.278 2.067-3.077 3.476-3.714 2.6-1.176 3.874 2.372 4.64 4.306.31.783 1.4.672 1.472-.2.312-3.816 1.56-7.463 3.796-10.59.763-1.068 1.767-2.51 3.08-1.149.64.664.968 2.004 1.27 2.828.69 1.886 1.096 3.824 1.294 5.822.05.508.436.82.948.722 4.464-.853 5.78 4.075 3.955 7.25-.58 1.008-1.044 1.61-.655 2.797.685 2.09 1.963 3.45 2.08 5.782.13 2.593-.76 5.168-2.566 7.047-1.685 1.754-4.083 2.87-6.517 2.994-1.874.095-1.438-.093-2.782 1.215-4.13 4.018-9.895-.438-13.132-3.231-.727-.627-1.792.428-1.06 1.06 3.7 3.192 8.72 6.956 13.773 4.278.922-.488 1.565-1.471 2.48-1.814 1.08-.404 2.574-.193 3.738-.584 2.226-.748 4.24-2.193 5.6-4.112 1.557-2.196 2.192-4.956 1.902-7.619a11.075 11.075 0 0 0-.898-3.332c-.267-.595-.901-1.26-1.059-1.883-.315-1.245.33-1.61.793-2.516 2.25-4.404-.947-9.75-6.05-8.776.316.24.633.48.948.722-.233-2.362-1.65-12.393-5.693-11.051-2.054.682-3.766 4.199-4.599 5.942-1.24 2.595-1.91 5.342-2.145 8.199l1.472-.199c-.72-1.82-1.903-4.871-3.851-5.725-1.942-.851-4.02 1.102-5.246 2.414-3.307 3.537-4.435 8.657-2.98 13.252.29.916 1.737.525 1.445-.398"/>
        <path fill="#000" d="M82.443 21.847c.512-.841 2.818-3.577 4.13-1.421.567.933-.162 2.909-.446 3.807-.139.437.247.987.742.948 7.32-.58 2.018 14.423-4.323 8.035-.69-.696-1.778.365-1.089 1.06 3.058 3.08 7.936 1.779 9.791-1.882 1.763-3.478.476-9.097-4.38-8.711l.744.948c.55-1.736 1.404-5.454-.963-6.426-2.151-.884-4.559 1.281-5.536 2.886-.506.831.825 1.586 1.33.756"/>
        <path fill="#000" d="M69.55 43.63c6.57 1.18 13.493-.226 15.421-7.666.251-.967-1.22-1.38-1.47-.413-1.696 6.543-7.822 7.609-13.545 6.58-.96-.172-1.37 1.326-.405 1.5"/>
        <g transform="translate(44 53)">
            <mask id="b" fill="#fff">
                <use xlink:href="#a"/>
            </mask>
            <path fill="#4A69FF" d="M.714 1.344l33.356.348c.953.01.953-1.19 0-1.2L.714.144c-.952-.01-.953 1.19 0 1.2" mask="url(#b)"/>
        </g>
        <path fill="#000" d="M14.473 25.323c-.6-3.201-1.255-6.648.018-9.774 1.19-2.923 3.997-4.765 7.167-3.77 1.451.456 2.162 1.358 3.109 2.414.398.444.705.82 1.295.991.796.232 1.471-.087 2.207-.345 1.357-.476 2.647-.867 4.108-.83 6.655.169 8.067 9.411 6.554 14.47-1.943 6.497-9.197 9.425-15.232 6.629l.152 1.18c3.25-3.768 2.498-9.789-2.232-11.945-2.415-1.1-4.74-.76-7.054.338-.6.369-1.23.68-1.89.932-.634.031-1.27.048-1.904.05-.562.075-.96.058-1.509.35-.94.503-1.58 1.49-1.934 2.46-1.286 3.514 1.558 5.493 2.568 8.548.82 2.483 1.546 4.429 4.161 5.496 4.995 2.04 9.562-2.732 8.417-7.693-.218-.942-1.664-.543-1.446.4 1.14 4.94-4.91 8.539-8.392 4.51-1.177-1.363-1.15-3.282-1.977-4.834-.361-.677-.896-1.241-1.272-1.904-1.19-2.1-1.327-3.304.543-4.8 1.411-1.13 1.373-.815 2.772-1.072.727-.134 1.284-.448 1.942-.76 1.816-.862 3.268-1.584 5.327-1.025 4.432 1.201 5.743 6.496 2.82 9.886-.287.332-.319.963.15 1.18 6.234 2.89 13.68.661 16.727-5.682 2.411-5.017 1.775-14.532-3.784-17.364-1.309-.667-2.781-.91-4.24-.843-.68.03-1.363.144-2.024.3-.705.17-1.69.828-2.379.83-1.526.002-2.975-2.393-4.386-3.014a7.45 7.45 0 0 0-3.605-.607c-7.773.656-7.246 10.242-6.224 15.698.179.95 1.624.548 1.447-.4"/>
        <path fill="#000" d="M26.723 25.708a236.266 236.266 0 0 0-.547 27.58c.036.947 1.31.952 1.273 0a236.266 236.266 0 0 1 .548-27.58c.074-.947-1.2-.941-1.274 0"/>
        <path fill="#000" d="M29.383 32.692l3.478-4.657c.555-.743-.695-1.462-1.245-.727l-3.477 4.657c-.555.743.695 1.463 1.244.727M20.326 41.542c2.235 1.729 4 5.806 7.299 4.011.85-.462.104-1.857-.745-1.395-2.248 1.224-4.26-2.812-5.81-4.011-.776-.601-1.515.799-.744 1.395"/>
        <path fill="#000" d="M28.517 44.791c2.008.646 4.057-.266 5.26-1.906 1.523-2.076 1.293-4.787 1.037-7.187-.099-.926-1.594-.936-1.494 0 .173 1.621.407 3.387-.1 4.972-.575 1.798-2.276 3.364-4.305 2.712-.916-.294-1.308 1.116-.398 1.41"/>
        <g transform="translate(35 19)">
            <mask id="d" fill="#fff">
                <use xlink:href="#c"/>
            </mask>
            <path fill="#000" d="M.343 15.92c4.297 4.638 11.206-1.41 7.013-6.168L6.447 10.9C11.234 13.34 12.495 4.763 11.073 2 9.76-.548 2.658.304 4.705 2.481c.652.696 1.71-.339 1.06-1.03-.154.472-.018.644.406.512.379-.007.758-.016 1.136-.024 1.33.102 2.553.532 2.697 1.964.122 1.212.05 7.188-2.8 5.736-.771-.394-1.461.518-.909 1.145 2.89 3.28-1.908 7.324-4.892 4.103-.647-.7-1.705.336-1.06 1.032" mask="url(#d)"/>
        </g>
        <path fill="#000" d="M25.124 22.492a9.367 9.367 0 0 0 2.296 2.31c.434.306.95.257 1.278-.144a4579.6 4579.6 0 0 1 2.152-2.628c.611-.746-.8-1.458-1.405-.718l-2.152 2.627 1.278-.145c-.818-.578-1.493-1.235-2.042-2.022-.544-.781-1.953-.066-1.405.72"/>
        <path fill="#4A69FF" d="M.719 54.55L34.28 55c.958.013.959-1.537 0-1.55L.72 53c-.958-.013-.96 1.537 0 1.55"/>
    </g>
</svg>
