<svg xmlns="http://www.w3.org/2000/svg" xmlns:xlink="http://www.w3.org/1999/xlink" width="307" height="27" viewBox="0 0 307 27">
    <defs>
        <path id="a" d="M.262.077H20.62v26.026H.262z"/>
        <path id="c" d="M.228.077H23.92v26.03H.228z"/>
        <path id="e" d="M.614.077H27.88v26.03H.614z"/>
        <path id="g" d="M.76.077h25.256v26.774H.76z"/>
        <path id="i" d="M.313.078h16.849V17.1H.313z"/>
        <path id="k" d="M0 26.851h305.493V0H0z"/>
    </defs>
    <g fill="none" fill-rule="evenodd">
        <path fill="#000" d="M7.391 12.971h4.349c3.221 0 4.697-1.071 4.697-3.503 0-2.436-1.402-3.563-4.73-3.563H7.39v7.066zm4.61-12.97c8.422 0 12.117 2.955 12.117 9.197 0 6.242-3.894 9.049-12.038 9.049H7.391v7.262H0V0h12z"/>
        <g transform="translate(34.837)">
            <mask id="b" fill="#fff">
                <use xlink:href="#a"/>
            </mask>
            <path fill="#000" d="M20.62 19.82v6.283H.262V.077h7.231v19.742z" mask="url(#b)"/>
        </g>
        <path fill="#000" d="M70.388 6.158v3.515H84.46v5.847H70.388v3.83h15.365v6.159l-22.778-.003V0h22.541v6.158zM112.704 25.509l-11.42-14.228V25.51h-7.492V0h7.883l11.422 14.23V0h7.493v25.509z"/>
        <g transform="translate(128.629)">
            <mask id="d" fill="#fff">
                <use xlink:href="#c"/>
            </mask>
            <path fill="#000" d="M15.847 6.045v20.062H8.3V6.045H.228V.077H23.92v5.968z" mask="url(#d)"/>
        </g>
        <g transform="translate(160.786)">
            <mask id="f" fill="#fff">
                <use xlink:href="#e"/>
            </mask>
            <path fill="#000" d="M17.698 26.107h-6.902v-8.86L.614.078h8.247l5.418 9.67 5.448-9.67h8.153l-10.182 17.07z" mask="url(#f)"/>
        </g>
        <path fill="#000" d="M273.336 14.304c0 8.653-4.673 12.547-12.06 12.547-7.385 0-12.058-3.894-12.058-12.547V.004h7.073v14.3c.001 4.249 1.94 6.035 4.987 6.035s4.987-1.786 4.985-6.035V0h7.073v14.304z"/>
        <g transform="translate(280.036)">
            <mask id="h" fill="#fff">
                <use xlink:href="#g"/>
            </mask>
            <path fill="#000" d="M13.504.077c4.413 0 8.694 1.063 11.95 2.904L22.33 8.39c-3.17-1.515-6.92-2.412-9.647-2.411-1.419.002-2.632.512-2.632 1.718 0 .813.5 1.13 4.822 2.144 6.519 1.628 11.143 3.12 11.143 8.439 0 5.54-4.485 8.572-11.62 8.572-5.164 0-9.836-1.255-13.635-3.612l3.34-5.23c3.577 1.909 7.606 2.858 11.146 2.86 1.527.001 2.878-.513 2.878-1.691 0-1.481-.795-1.654-5.37-2.715C6.486 15.027 1.96 13.651 1.96 8.567 1.96 2.73 7.022.078 13.504.077z" mask="url(#h)"/>
        </g>
        <g transform="translate(200.983)">
            <mask id="j" fill="#fff">
                <use xlink:href="#i"/>
            </mask>
            <path fill="#000" d="M4.721 8.59c0 2.391 1.661 4.33 4.016 4.33 2.356 0 4.017-1.939 4.017-4.33 0-2.393-1.661-4.332-4.017-4.332-2.355 0-4.016 1.94-4.016 4.331m12.44 0c0 4.701-3.77 8.511-8.424 8.511-4.652 0-8.424-3.81-8.424-8.51C.313 3.887 4.085.076 8.737.076c4.653 0 8.425 3.811 8.425 8.512" mask="url(#j)"/>
        </g>
        <path fill="#000" d="M227.467 4.214v3.17h8.836v4.002h-8.836v6.067h-5.046V0h14.738v4.214z"/>
        <mask id="l" fill="#fff">
            <use xlink:href="#k"/>
        </mask>
        <path fill="#000" d="M199.643 25.509h37.516V21.48h-37.516z" mask="url(#l)"/>
    </g>
</svg>
